<svg width="32" height="32" viewBox="0 0 32 32" fill="none" xmlns="http://www.w3.org/2000/svg">
<path d="M4.98448 4.0001C4.71886 4.00401 4.46495 4.11339 4.28136 4.30479C4.09776 4.4962 3.9962 4.7501 4.00011 5.01573V25.2657C4.00011 25.629 4.19542 25.9649 4.51183 26.1407C4.51183 26.1407 5.54698 26.7071 7.45323 27.2306C9.35948 27.754 12.2032 28.2657 16.0001 28.2657C19.797 28.2657 22.6407 27.754 24.547 27.2306C26.4532 26.7071 27.4884 26.1407 27.4884 26.1407C27.8048 25.9649 28.0001 25.629 28.0001 25.2657V18.2853C28.0001 18.2618 28.0001 18.2384 28.0001 18.2149V5.01573C28.004 4.7462 27.8985 4.48448 27.7071 4.29307C27.5157 4.10167 27.254 3.9962 26.9845 4.0001C26.7189 4.00401 26.465 4.11339 26.2814 4.30479C26.0978 4.4962 25.9962 4.7501 26.0001 5.01573V9.44151C23.9064 6.31261 20.3634 4.21495 16.3556 4.08995C16.2423 4.04307 16.1212 4.01964 16.0001 4.01573C11.84 4.01573 8.15636 6.16807 6.00011 9.41417V5.01573C6.00401 4.7462 5.89855 4.48448 5.70714 4.29307C5.51573 4.10167 5.25401 3.9962 4.98448 4.0001ZM16.0001 6.01573C21.504 6.01573 26.0001 10.5118 26.0001 16.0157V24.5782C25.7462 24.7071 25.3985 24.922 24.0157 25.3009C22.2775 25.7774 19.6173 26.2657 16.0001 26.2657C12.3829 26.2657 9.72276 25.7774 7.98448 25.3009C6.60167 24.922 6.25401 24.7071 6.00011 24.5782V17.086C6.00011 17.0626 6.00011 17.0392 6.00011 17.0157V16.0157C6.00011 10.5118 10.4962 6.01573 16.0001 6.01573ZM11.0001 14.0157C9.35167 14.0157 8.00011 15.3673 8.00011 17.0157C8.00011 18.6642 9.35167 20.0157 11.0001 20.0157H21.0001C22.6485 20.0157 24.0001 18.6642 24.0001 17.0157C24.0001 15.3673 22.6485 14.0157 21.0001 14.0157H11.0001ZM10.9532 16.0157C11.504 16.0157 11.9532 16.4649 11.9532 17.0157C11.9532 17.5665 11.5079 18.0157 10.9532 18.0157C10.4025 18.0157 9.95323 17.5665 9.95323 17.0157C9.95323 16.4649 10.4025 16.0157 10.9532 16.0157ZM21.0001 16.0157C21.5509 16.0157 22.0001 16.4649 22.0001 17.0157C22.0001 17.5665 21.5509 18.0157 21.0001 18.0157C20.4493 18.0157 20.0001 17.5665 20.0001 17.0157C20.0001 16.4649 20.4493 16.0157 21.0001 16.0157Z" fill="#9FA4B3"/>
</svg>
