<svg width="32" height="32" viewBox="0 0 32 32" fill="none" xmlns="http://www.w3.org/2000/svg">
<path d="M5.00003 4C3.3555 4 2.00003 5.35547 2.00003 7V18H4.00003V10H28V25C28 25.5625 27.5625 26 27 26H24V28H27C28.6446 28 30 26.6445 30 25V7C30 5.35547 28.6446 4 27 4H5.00003ZM5.00003 6H27C27.5625 6 28 6.4375 28 7V8H4.00003V7C4.00003 6.4375 4.43753 6 5.00003 6ZM11.9532 18L9.78128 28H11.8282L14 18H11.9532ZM7.043 18.0898L2.13284 23L7.043 27.9102L8.45706 26.4961L4.96097 23L8.45706 19.5039L7.043 18.0898ZM17.0039 18.0898L15.5899 19.5039L19.086 23L15.5899 26.4961L17.0039 27.9102L21.9141 23L17.0039 18.0898Z" fill="#9FA4B3"/>
</svg>
