<svg width="32" height="32" viewBox="0 0 32 32" fill="none" xmlns="http://www.w3.org/2000/svg">
<g clip-path="url(#clip0_22_595)">
<path d="M25.7 9.3L18.7 2.3C18.612 2.20228 18.5038 2.12484 18.383 2.07304C18.2621 2.02124 18.1314 1.99632 18 2H8C7.47005 2.00155 6.96224 2.21277 6.58751 2.5875C6.21277 2.96224 6.00156 3.47004 6 4V28C6.00156 28.53 6.21277 29.0378 6.58751 29.4125C6.96224 29.7872 7.47005 29.9984 8 30H24C24.53 29.9984 25.0378 29.7872 25.4125 29.4125C25.7872 29.0378 25.9984 28.53 26 28V10C26.0037 9.86855 25.9788 9.73788 25.927 9.61702C25.8752 9.49615 25.7977 9.38799 25.7 9.3ZM18 4.4L23.6 10H18V4.4ZM24 28H8V4H16V10C16.0016 10.53 16.2128 11.0378 16.5875 11.4125C16.9622 11.7872 17.47 11.9984 18 12H24V28Z" fill="#9FA4B3"/>
</g>
<defs>
<clipPath id="clip0_22_595">
<rect width="32" height="32" fill="white"/>
</clipPath>
</defs>
</svg>
