<svg width="32" height="32" viewBox="0 0 32 32" fill="none" xmlns="http://www.w3.org/2000/svg">
<g clip-path="url(#clip0_22_543)">
<path d="M23.59 19.41L26 22H21V24H26L23.59 26.59L25 28L30 23L25 18L23.59 19.41Z" fill="#9FA4B3"/>
<path d="M13 6C11.3705 6.0006 9.77173 6.44359 8.37429 7.2817C6.97685 8.11981 5.83317 9.32159 5.06528 10.7588C4.29739 12.196 3.93411 13.8148 4.01419 15.4423C4.09427 17.0698 4.61472 18.6451 5.52 20L7.18 18.89C6.31276 17.5926 5.90394 16.0425 6.0185 14.4862C6.13306 12.9298 6.76442 11.4563 7.81228 10.2998C8.86014 9.14336 10.2644 8.37021 11.802 8.10321C13.3396 7.83621 14.9223 8.09067 16.2987 8.82617C17.6751 9.56167 18.7662 10.736 19.3988 12.1627C20.0314 13.5893 20.169 15.1864 19.79 16.7003C19.4109 18.2141 18.5368 19.5579 17.3066 20.5181C16.0764 21.4783 14.5606 21.9999 13 22H2V24H13C15.3869 24 17.6761 23.0518 19.364 21.364C21.0518 19.6761 22 17.3869 22 15C22 12.6131 21.0518 10.3239 19.364 8.63604C17.6761 6.94821 15.3869 6 13 6Z" fill="#9FA4B3"/>
</g>
<defs>
<clipPath id="clip0_22_543">
<rect width="32" height="32" fill="white"/>
</clipPath>
</defs>
</svg>
