<svg width="32" height="32" viewBox="0 0 32 32" fill="none" xmlns="http://www.w3.org/2000/svg">
<g clip-path="url(#clip0_72_513)">
<path d="M16 3C14.9688 3 13.9688 3.13281 13.0156 3.35938L13.4844 5.30469C14.2969 5.10938 15.1406 5 16 5C18.7109 5 21.1719 5.99219 23.0859 7.60938L21 9L27 11V5L24.8203 6.45312C22.5 4.3125 19.3984 3 16 3ZM5 5L6.46875 7.20312C4.32031 9.51562 3 12.6016 3 16C3 17.0234 3.11719 18.0156 3.34375 18.9688L5.28906 18.5156C5.10156 17.7109 5 16.8672 5 16C5 13.2891 5.98438 10.8281 7.60938 8.91406L9 11L11 5H5ZM28.6562 13.0156L26.7109 13.4688C26.8984 14.2812 27 15.125 27 16C27 18.7109 26.0078 21.1719 24.3906 23.0859L23 21L21 27H27L25.5469 24.8203C27.6875 22.5 29 19.3984 29 16C29 14.9766 28.8828 13.9688 28.6562 13.0156ZM5 21V27L7.1875 25.5391C9.50781 27.6875 12.6016 29 16 29C17.0234 29 18.0234 28.8828 18.9844 28.6562L18.5234 26.7109C17.7109 26.8984 16.8672 27 16 27C13.2891 27 10.8203 26.0156 8.90625 24.3984L11 23L5 21Z" fill="#9FA4B3"/>
</g>
<defs>
<clipPath id="clip0_72_513">
<rect width="32" height="32" fill="white"/>
</clipPath>
</defs>
</svg>
