<svg width="32" height="32" viewBox="0 0 32 32" fill="none" xmlns="http://www.w3.org/2000/svg">
<path d="M5 4C4.44922 4 4 4.44922 4 5V21C4 21.5508 4.44922 22 5 22H12V26H8V28H24V26H20V22H27C27.5508 22 28 21.5508 28 21V5C28 4.44922 27.5508 4 27 4H5ZM6 6H26V10.4297L17.6406 15.4453L15.9687 8.75781C15.8594 8.32422 15.4766 8.01172 15.0273 8C14.8359 7.99609 14.6445 8.04297 14.4805 8.14453L6 13.3047V6ZM14.3594 10.5586L16.0312 17.2422C16.1094 17.5508 16.3242 17.8047 16.6172 17.9258C16.9102 18.0469 17.2422 18.0234 17.5156 17.8594L26 12.7695V20H6V15.6445L14.3594 10.5586ZM14 22H18V26H14V22Z" fill="#9FA4B3"/>
</svg>
