<svg width="32" height="32" viewBox="0 0 32 32" fill="none" xmlns="http://www.w3.org/2000/svg">
<path d="M26.0159 5.00024C25.6644 4.99243 25.3323 5.17212 25.1487 5.46899C24.9612 5.76978 24.9456 6.14478 25.1058 6.45728L25.305 6.85181L8.92218 12.2034C8.85187 11.6565 8.71124 10.9377 8.37921 10.1292C8.07843 9.40259 7.6214 8.63306 6.90265 8.02759C6.1839 7.42212 5.1839 7.01196 4.0003 7.01196C3.64093 7.00806 3.30499 7.19556 3.1214 7.50806C2.94171 7.82056 2.94171 8.20337 3.1214 8.51587C3.30499 8.82837 3.64093 9.01587 4.0003 9.01196C4.75421 9.01196 5.21905 9.22681 5.61358 9.55884C6.00812 9.89087 6.3128 10.3713 6.52765 10.8948C6.89874 11.7893 6.96124 12.5901 6.97687 12.8401L4.76202 13.5627C4.57452 13.6252 4.41046 13.7385 4.28937 13.8909C4.28937 13.8909 2.87921 15.676 3.00812 18.3127C3.03937 18.9456 3.20733 19.6409 3.44562 20.3557L1.62921 21.0823C1.11749 21.2854 0.867492 21.8713 1.07062 22.3831C1.27374 22.8948 1.85968 23.1448 2.3714 22.9417L4.32452 22.1604C6.35577 25.1487 9.89484 25.0081 9.89484 25.0081C10.012 25.0002 10.1292 24.9729 10.2386 24.9221L11.5862 24.3049C12.4222 25.9026 14.0823 27.012 16.0003 27.012C18.7503 27.012 21.0003 24.762 21.0003 22.012C21.0003 20.9065 20.6292 19.8909 20.0159 19.0627L28.9222 14.0901L29.1058 14.4573C29.2542 14.7932 29.5784 15.0198 29.9417 15.0471C30.3089 15.0745 30.6605 14.8987 30.8597 14.5901C31.0589 14.2815 31.0706 13.887 30.8948 13.5667L26.8948 5.56665C26.7308 5.22681 26.3909 5.00806 26.0159 5.00024ZM26.2073 8.6565L28.0276 12.2971L18.4144 17.6643C17.6956 17.262 16.8792 17.012 16.0003 17.012C13.2503 17.012 11.0003 19.262 11.0003 22.012C11.0003 22.1292 11.0276 22.2385 11.0355 22.3518L9.62921 23.0002C9.42609 23.0159 6.91827 23.1917 5.60577 20.469C5.20343 19.6292 5.03937 18.8752 5.00421 18.2112C4.91437 16.426 5.69952 15.4612 5.80108 15.3245L26.2073 8.6565ZM16.0003 19.012C17.6683 19.012 19.0003 20.344 19.0003 22.012C19.0003 23.6799 17.6683 25.012 16.0003 25.012C14.3323 25.012 13.0003 23.6799 13.0003 22.012C13.0003 20.344 14.3323 19.012 16.0003 19.012ZM16.0003 21.012C15.4495 21.012 15.0003 21.4612 15.0003 22.012C15.0003 22.5627 15.4495 23.012 16.0003 23.012C16.5511 23.012 17.0003 22.5627 17.0003 22.012C17.0003 21.4612 16.5511 21.012 16.0003 21.012Z" fill="#9FA4B3"/>
</svg>
