<svg width="32" height="32" viewBox="0 0 32 32" fill="none" xmlns="http://www.w3.org/2000/svg">
<path d="M1.91116 9V23H5.87618C8.0523 23 9.84121 21.1953 9.84121 19V13C9.84121 10.8047 8.0523 9 5.87618 9H1.91116ZM11.7308 9V23H13.7133V12.875L17.0588 23H19.7538V9H17.7712V18.8281L14.5187 9H11.7308ZM25.7013 9C23.5252 9 21.7363 10.8047 21.7363 13C21.7363 15.1953 23.5252 17 25.7013 17C26.8087 17 27.6838 17.8828 27.6838 19C27.6838 20.1172 26.8087 21 25.7013 21H21.7363V23H25.7013C27.8774 23 29.6663 21.1953 29.6663 19C29.6663 16.8047 27.8774 15 25.7013 15C24.5939 15 23.7188 14.1172 23.7188 13C23.7188 11.8828 24.5939 11 25.7013 11H29.6663V9H25.7013ZM3.89367 11H5.87618C6.9836 11 7.8587 11.8828 7.8587 13V19C7.8587 20.1172 6.9836 21 5.87618 21H3.89367V11Z" fill="#9FA4B3"/>
</svg>
