<svg width="32" height="32" viewBox="0 0 32 32" fill="none" xmlns="http://www.w3.org/2000/svg">
<path d="M15 2C7.82812 2 2 7.82812 2 15C2 22.1719 7.82812 28 15 28C17.4375 28 19.7266 27.3281 21.6797 26.1562L20.6484 24.4375C19 25.4297 17.0703 26 15 26C8.91406 26 4 21.0859 4 15C4 8.91406 8.91406 4 15 4C21.0859 4 26 8.91406 26 15V17.2031C26 18.75 24.75 20 23.2109 20H22.7969C21.2578 20 20 18.75 20 17.2031V12.7969C20 10.1641 17.8359 8 15.2031 8H14.7969C12.1641 8 10 10.1641 10 12.7969V17.2031C10 19.8359 12.1641 22 14.7969 22H15.2031C16.75 22 18.125 21.2422 19 20.0938C19.8828 21.2422 21.25 22 22.7969 22H23.2109C25.8359 22 28 19.8438 28 17.2031V15C28 7.82812 22.1719 2 15 2ZM14.7969 10H15.2031C16.7422 10 18 11.25 18 12.7969V17.2031C18 18.75 16.7422 20 15.2031 20H14.7969C13.25 20 12 18.75 12 17.2031V12.7969C12 11.25 13.25 10 14.7969 10Z" fill="#9FA4B3"/>
</svg>
