<svg width="32" height="32" viewBox="0 0 32 32" fill="none" xmlns="http://www.w3.org/2000/svg">
<path d="M4.75781 6C4.50131 6.00511 4.25657 6.10859 4.07422 6.28906C1.57074 8.77317 0 12.205 0 16C0 19.795 1.57074 23.2268 4.07422 25.7109C4.26143 25.896 4.51408 25.9998 4.77734 25.9998C5.04061 25.9998 5.29325 25.896 5.48047 25.7109L9.70312 21.543C9.79746 21.4496 9.87228 21.3385 9.92323 21.2159C9.97417 21.0934 10.0002 20.962 9.99986 20.8293C9.99949 20.6966 9.97272 20.5653 9.92111 20.443C9.86949 20.3208 9.79407 20.21 9.69922 20.1172C8.62604 19.0628 8 17.6335 8 16C8 14.3665 8.62605 12.9372 9.69922 11.8828C9.79407 11.79 9.86949 11.6792 9.92111 11.557C9.97272 11.4347 9.99949 11.3034 9.99986 11.1707C10.0002 11.038 9.97417 10.9066 9.92323 10.7841C9.87228 10.6615 9.79746 10.5504 9.70312 10.457L5.48047 6.28906C5.38545 6.19503 5.27254 6.121 5.14841 6.07135C5.02429 6.0217 4.89147 5.99744 4.75781 6ZM27.2031 6C26.9466 6.00511 26.7019 6.10859 26.5195 6.28906L22.2969 10.457C22.2025 10.5504 22.1277 10.6615 22.0768 10.7841C22.0258 10.9066 21.9998 11.038 22.0001 11.1707C22.0005 11.3034 22.0273 11.4347 22.0789 11.557C22.1305 11.6792 22.2059 11.79 22.3008 11.8828C23.3728 12.9345 24 14.3665 24 16C24 17.6335 23.374 19.0628 22.3008 20.1172C22.2059 20.21 22.1305 20.3208 22.0789 20.443C22.0273 20.5653 22.0005 20.6966 22.0001 20.8293C21.9998 20.962 22.0258 21.0934 22.0768 21.2159C22.1277 21.3385 22.2025 21.4496 22.2969 21.543L26.5195 25.7109C26.7067 25.896 26.9594 25.9998 27.2227 25.9998C27.4859 25.9998 27.7386 25.896 27.9258 25.7109C30.4294 23.2268 32 19.795 32 16C32 12.205 30.4293 8.77317 27.9258 6.28906C27.8308 6.19503 27.7179 6.121 27.5937 6.07135C27.4696 6.0217 27.3368 5.99744 27.2031 6ZM4.91406 8.53906L7.71875 11.3086C6.69476 12.6334 6 14.2145 6 16C6 17.7855 6.69476 19.3666 7.71875 20.6914L4.91406 23.4609C3.17099 21.4165 2 18.8844 2 16C2 13.1156 3.17099 10.5835 4.91406 8.53906ZM27.0859 8.53906C28.829 10.5835 30 13.1156 30 16C30 18.8844 28.829 21.4165 27.0859 23.4609L24.2812 20.6914C25.3052 19.3666 26 17.7855 26 16C26 14.2145 25.3057 12.6331 24.2812 11.3086L27.0859 8.53906ZM16 12C13.8027 12 12 13.8027 12 16C12 18.1973 13.8027 20 16 20C18.1973 20 20 18.1973 20 16C20 13.8027 18.1973 12 16 12ZM16 14C17.1164 14 18 14.8836 18 16C18 17.1164 17.1164 18 16 18C14.8836 18 14 17.1164 14 16C14 14.8836 14.8836 14 16 14Z" fill="#9097AB"/>
</svg>
