<?xml version="1.0" encoding="UTF-8"?>
<svg xmlns="http://www.w3.org/2000/svg" xmlns:xlink="http://www.w3.org/1999/xlink" viewBox="0 0 32 32" width="32px" height="32px">
<g id="surface30937610">
<path style=" stroke:none;fill-rule:nonzero;fill:rgb(62.352943%,64.313728%,70.19608%);fill-opacity:1;" d="M 8.96875 2 C 8.839844 2.003906 8.714844 2.035156 8.597656 2.085938 C 8.597656 2.085938 4 4.128906 4 9 L 4 15 C 4 15.550781 4.449219 16 5 16 L 9 16 C 9.550781 16 10 15.550781 10 15 L 10 12 L 27 12 C 27.550781 12 28 11.550781 28 11 L 28 7 C 28 6.449219 27.550781 6 27 6 L 10 6 L 10 3 C 10 2.730469 9.890625 2.46875 9.695312 2.28125 C 9.5 2.09375 9.238281 1.992188 8.96875 2 Z M 8 4.894531 L 8 14 L 6 14 L 6 9 C 6 6.878906 7.03125 5.675781 8 4.894531 Z M 10 8 L 26 8 L 26 10 L 10 10 Z M 5 18 C 4.449219 18 4 18.449219 4 19 L 4 25 C 4 25.550781 4.449219 26 5 26 L 9.382812 26 L 8.105469 28.554688 C 7.953125 28.863281 7.96875 29.230469 8.152344 29.527344 C 8.332031 29.820312 8.652344 30 9 30 L 21 30 C 21.347656 30 21.667969 29.820312 21.847656 29.527344 C 22.03125 29.230469 22.046875 28.863281 21.894531 28.554688 L 20.617188 26 L 21 26 C 24.332031 26 26.273438 24.183594 27.144531 22.445312 C 28.015625 20.707031 28 19 28 19 C 28 18.449219 27.550781 18 27 18 Z M 6 20 L 25.746094 20 C 25.683594 20.492188 25.738281 20.789062 25.355469 21.554688 C 24.726562 22.816406 23.667969 24 21 24 L 19 24 C 18.652344 24 18.332031 24.179688 18.152344 24.472656 C 17.96875 24.769531 17.953125 25.136719 18.105469 25.445312 L 19.382812 28 L 10.617188 28 L 11.894531 25.445312 C 12.046875 25.136719 12.03125 24.769531 11.847656 24.472656 C 11.667969 24.179688 11.347656 24 11 24 L 6 24 Z M 6 20 "/>
</g>
</svg>
