<svg width="32" height="32" viewBox="0 0 32 32" fill="none" xmlns="http://www.w3.org/2000/svg">
<path d="M6 2C4.35156 2 3 3.35156 3 5V23C3 24.6484 4.35156 26 6 26H11V24H6C5.4375 24 5 23.5625 5 23V5C5 4.4375 5.4375 4 6 4H15V10H21V16H23V8.58594L16.4141 2H6ZM17 5.41406L19.5859 8H17V5.41406ZM9 14V16H17V14H9ZM9 18V20H11V18H9ZM15 18C13.9062 18 13 18.9062 13 20V28C13 29.0938 13.9062 30 15 30H27C28.0938 30 29 29.0938 29 28V20C29 18.9062 28.0938 18 27 18H15ZM16.4688 20H25.2891L20.9844 23.4766L16.4688 20ZM27 21.1875V28H15V21.3984L21.0156 26.0234L27 21.1875Z" fill="#9FA4B3"/>
</svg>
