<?xml version="1.0" encoding="UTF-8"?>
<svg xmlns="http://www.w3.org/2000/svg" xmlns:xlink="http://www.w3.org/1999/xlink" viewBox="0 0 32 32" width="32px" height="32px">
<g id="surface30942090">
<path style=" stroke:none;fill-rule:nonzero;fill:rgb(62.352943%,64.313728%,70.19608%);fill-opacity:1;" d="M 7 2 C 4.25 2 2 4.25 2 7 C 2 9.40625 3.726562 11.429688 6 11.898438 L 6 18 L 3 18 C 2.445312 18 2 18.445312 2 19 L 2 27 C 2 27.554688 2.445312 28 3 28 L 11 28 C 11.554688 28 12 27.554688 12 27 L 12 19 C 12 18.445312 11.554688 18 11 18 L 8 18 L 8 11.898438 C 9.953125 11.5 11.5 9.953125 11.898438 8 L 18.585938 8 L 22 11.414062 L 22 18.101562 C 19.726562 18.570312 18 20.59375 18 23 C 18 25.75 20.25 28 23 28 C 25.75 28 28 25.75 28 23 C 28 20.59375 26.273438 18.570312 24 18.101562 L 24 11.414062 L 27.710938 7.703125 C 28.09375 7.320312 28.09375 6.679688 27.710938 6.296875 L 23.710938 2.296875 C 23.515625 2.101562 23.257812 1.992188 22.984375 2 C 22.726562 2.007812 22.476562 2.109375 22.289062 2.296875 L 18.585938 6 L 11.898438 6 C 11.429688 3.726562 9.40625 2 7 2 Z M 7 4 C 8.671875 4 10 5.328125 10 7 C 10 8.671875 8.671875 10 7 10 C 5.328125 10 4 8.671875 4 7 C 4 5.328125 5.328125 4 7 4 Z M 23 4.414062 L 25.585938 7 L 23 9.585938 L 20.414062 7 Z M 4 20 L 10 20 L 10 26 L 4 26 Z M 23 20 C 24.671875 20 26 21.328125 26 23 C 26 24.671875 24.671875 26 23 26 C 21.328125 26 20 24.671875 20 23 C 20 21.328125 21.328125 20 23 20 Z M 23 20 "/>
</g>
</svg>
