<svg width="32" height="32" viewBox="0 0 32 32" fill="none" xmlns="http://www.w3.org/2000/svg">
<path fill-rule="evenodd" clip-rule="evenodd" d="M15.3065 2.01867C15.2742 2.0266 14.9921 2.05088 14.6796 2.07271C14.0534 2.11646 13.6725 2.17392 12.9948 2.327C12.747 2.38299 12.4737 2.44446 12.3875 2.46375C12.1034 2.52727 11.0007 2.90011 10.7027 3.03342C10.6381 3.0624 10.4529 3.14432 10.2913 3.21549C9.66902 3.48956 8.58929 4.07137 8.39103 4.23944C8.36948 4.25764 8.25292 4.33722 8.13214 4.41621C7.68009 4.71162 7.48712 4.84807 7.39171 4.93998C7.33774 4.99206 7.26418 5.05108 7.22823 5.07124C7.14801 5.11637 6.67842 5.53746 6.18327 6.00847C5.83945 6.33549 4.91684 7.39752 4.70369 7.71163C4.65256 7.787 4.54197 7.94557 4.45793 8.064C3.92634 8.8132 3.22872 10.1226 2.95611 10.883C2.9136 11.0015 2.866 11.116 2.85032 11.1375C2.83465 11.1591 2.7986 11.256 2.7702 11.3529C2.74179 11.4498 2.67068 11.6788 2.6122 11.8619C2.55372 12.0449 2.48349 12.2916 2.45606 12.41C2.42874 12.5284 2.39171 12.6606 2.37388 12.7036C2.35605 12.7467 2.32353 12.8965 2.30179 13.0364C2.27994 13.1764 2.22617 13.4566 2.18229 13.6591C2.1384 13.8615 2.10245 14.1278 2.10245 14.2508C2.10245 14.3738 2.08414 14.5693 2.0618 14.6853C1.92908 15.3731 2.03075 17.8496 2.17259 17.3823C2.18229 17.3501 2.21216 17.2708 2.2389 17.2062C2.26555 17.1416 2.3539 16.9126 2.4351 16.6973C2.75404 15.852 3.36947 14.7041 3.87315 14.0153C3.91253 13.9614 3.99148 13.8469 4.04858 13.7608C5.0716 12.2191 7.53855 10.3384 9.39015 9.68837C9.55177 9.63169 9.7369 9.56278 9.80155 9.53528C9.97062 9.46333 10.3796 9.32718 10.5852 9.27423C10.6498 9.25759 10.879 9.19817 11.0945 9.14208C11.596 9.0117 12.041 8.9239 12.3875 8.887C12.5384 8.87095 12.9439 8.82465 13.2887 8.78393C14.1114 8.68693 25.2349 8.66735 25.294 8.76279C25.3119 8.79176 25.3128 8.87986 25.2957 8.95855C25.2788 9.03715 25.2356 9.25132 25.1997 9.43436C25.1639 9.6174 25.1197 9.83764 25.1015 9.92377C25.0834 10.0099 25.0415 10.2125 25.0084 10.374C24.9753 10.5355 24.9128 10.8351 24.8696 11.0396C24.8263 11.2442 24.7739 11.4997 24.7531 11.6074C24.6281 12.2541 24.522 12.6918 24.48 12.7338C24.4433 12.7706 23.8925 12.7843 22.1515 12.7918C20.8973 12.7972 19.8296 12.8112 19.7789 12.823L19.6867 12.8442L19.7985 12.9437C19.8599 12.9986 19.9984 13.1142 20.1062 13.2006C20.5633 13.5676 21.0728 14.332 21.2753 14.9549C21.5445 15.7835 21.5584 15.8449 21.6576 16.6385C21.7115 17.0713 21.6691 17.8845 21.5677 18.3613C21.5242 18.5658 21.4735 18.8125 21.4552 18.9094C21.3929 19.2385 21.0119 20.4646 20.8876 20.7359C20.8565 20.8038 20.831 20.8715 20.831 20.8862C20.831 20.901 20.7684 21.0569 20.6917 21.2326C20.615 21.4084 20.5312 21.6038 20.5055 21.6669C20.1774 22.4722 19.3797 23.7721 18.6795 24.6424C17.2277 26.447 15.3672 27.7205 12.9752 28.5472C12.8158 28.6023 12.6531 28.6417 12.1916 28.7365C11.9761 28.7808 11.7206 28.8353 11.624 28.8576C11.5272 28.8799 11.3372 28.9085 11.2015 28.9211C10.8102 28.9576 10.8348 29.0105 11.3296 29.1968C11.9739 29.4393 12.3855 29.553 13.4258 29.7753C14.9943 30.1105 17.6333 30.0649 19.1071 29.6772C20.302 29.3628 20.6483 29.2528 21.3208 28.9743C22.0325 28.6797 22.9725 28.2092 23.2407 28.0136C23.3053 27.9665 23.4714 27.862 23.6097 27.7816C23.8528 27.6401 24.6481 27.0623 24.8079 26.911C24.851 26.8702 24.9604 26.783 25.051 26.7171C26.0722 25.9751 27.7355 23.9034 28.4121 22.5311C28.4652 22.4234 28.5264 22.3089 28.5482 22.2766C28.7528 21.9722 29.2616 20.6652 29.4702 19.9078C29.5295 19.6925 29.6008 19.437 29.6285 19.3401C30.0799 17.7654 30.1289 14.6238 29.7262 13.0765C29.4979 12.199 29.4162 11.9156 29.2466 11.4116C29.1378 11.0886 28.9894 10.6953 28.9169 10.5376C28.8442 10.3799 28.7848 10.2439 28.7848 10.2354C28.7848 10.1428 28.2008 9.06299 27.8244 8.45955C27.6609 8.19752 26.9221 7.18991 26.7449 6.9873C25.8984 6.01973 24.9866 5.17138 24.2612 4.67638C24.1524 4.60219 23.9526 4.46192 23.8171 4.36473C23.6817 4.26743 23.5632 4.18785 23.554 4.18785C23.5448 4.18785 23.4002 4.10416 23.2325 4.00187C23.0649 3.89959 22.8923 3.79505 22.8491 3.7697C22.7216 3.69472 21.6625 3.16987 21.6387 3.16987C21.6266 3.16987 21.5238 3.12788 21.41 3.07649C21.2963 3.0252 21.1416 2.96089 21.0661 2.93358C20.9907 2.90637 20.8761 2.86213 20.8115 2.83531C20.7468 2.80859 20.5352 2.73909 20.3413 2.68105C20.1473 2.6229 19.9181 2.55165 19.8319 2.52277C19.2919 2.34139 17.9388 2.10628 17.0305 2.0361C16.5354 1.99783 15.4376 1.98676 15.3065 2.01867ZM13.0732 12.8407C13.0193 12.8579 12.8984 12.8738 12.8045 12.8759C12.4347 12.8844 11.3957 13.1829 10.8594 13.4346C10.2125 13.7385 9.32775 14.46 8.87521 15.0528C8.82594 15.1174 8.77383 15.1791 8.75963 15.1899C8.62171 15.2939 7.93849 16.4863 7.78372 16.893C7.76736 16.9361 7.72681 17.0418 7.6938 17.1279C7.57185 17.4453 7.34058 18.2641 7.27348 18.6158C7.2489 18.745 7.21177 18.9276 7.19111 19.0216C7.17034 19.1155 7.13723 19.3446 7.11735 19.5306C7.09746 19.7165 7.06122 20.0272 7.03673 20.221C6.73122 22.6416 7.72044 24.4718 9.54687 24.8646C10.081 24.9795 11.4542 24.9168 11.7802 24.7626C11.8341 24.7371 11.9659 24.6925 12.0733 24.6634C13.6754 24.2294 15.3703 21.8449 15.9961 19.1443C16.7215 16.0141 16.5556 13.9785 15.492 12.9572L15.3299 12.8015L14.2505 12.8054C13.6569 12.8076 13.1271 12.8234 13.0732 12.8407Z" fill="#9097AB"/>
</svg>
