<svg width="32" height="32" viewBox="0 0 32 32" fill="none" xmlns="http://www.w3.org/2000/svg">
<path fill-rule="evenodd" clip-rule="evenodd" d="M22 5H25C25.5304 5 26.0391 5.21071 26.4142 5.58579C26.7893 5.96086 27 6.46957 27 7V28C27 28.5304 26.7893 29.0391 26.4142 29.4142C26.0391 29.7893 25.5304 30 25 30H7C6.46957 30 5.96086 29.7893 5.58579 29.4142C5.21071 29.0391 5 28.5304 5 28V7C5 6.46957 5.21071 5.96086 5.58579 5.58579C5.96086 5.21071 6.46957 5 7 5H10V4C10 3.46957 10.2107 2.96086 10.5858 2.58579C10.9609 2.21071 11.4696 2 12 2H20C20.5304 2 21.0391 2.21071 21.4142 2.58579C21.7893 2.96086 22 3.46957 22 4V5ZM20 4H12V8H20V4ZM7 28H25V7H22V10H10V7H7V28ZM10.41 16.59L14 20.18L21.59 12.58L23 14L14 23L9 18L10.41 16.59Z" fill="#9FA4B3"/>
</svg>
