<svg width="32" height="32" viewBox="0 0 32 32" fill="none" xmlns="http://www.w3.org/2000/svg">
<path d="M8.8 26.2194V25.5357C8.8 24.3517 9.27411 23.2162 10.118 22.379C10.9619 21.5418 12.1065 21.0714 13.3 21.0714H18.7C19.2909 21.0714 19.8761 21.1869 20.4221 21.4113C20.968 21.6356 21.4641 21.9644 21.882 22.379C22.2998 22.7935 22.6313 23.2857 22.8575 23.8273C23.0836 24.3689 23.2 24.9495 23.2 25.5357V26.2194C23.8275 25.7765 24.4124 25.2772 24.9473 24.729C24.7689 23.369 24.1429 22.0966 23.1548 21.1163C21.9733 19.9442 20.3709 19.2857 18.7 19.2857H13.3C11.6291 19.2857 10.0267 19.9442 8.84523 21.1163C7.85707 22.0966 7.23108 23.369 7.05268 24.729C7.5876 25.2772 8.1725 25.7765 8.8 26.2194Z" fill="#B9BDC7"/>
<path fill-rule="evenodd" clip-rule="evenodd" d="M12.4999 6.05332C13.5359 5.36656 14.754 5 16 5C17.6709 5 19.2733 5.65848 20.4548 6.83058C21.6362 8.00268 22.3 9.5924 22.3 11.25C22.3 12.4861 21.9305 13.6945 21.2383 14.7223C20.546 15.7501 19.5621 16.5512 18.4109 17.0242C17.2597 17.4973 15.993 17.6211 14.7709 17.3799C13.5489 17.1388 12.4263 16.5435 11.5452 15.6694C10.6642 14.7953 10.0641 13.6817 9.82105 12.4693C9.57797 11.2569 9.70273 10.0003 10.1796 8.85823C10.6564 7.71619 11.4639 6.74007 12.4999 6.05332ZM18.5001 7.53808C17.76 7.04754 16.89 6.78571 16 6.78571C14.8065 6.78571 13.6619 7.25606 12.818 8.09327C11.9741 8.93049 11.5 10.066 11.5 11.25C11.5 12.133 11.7639 12.9961 12.2584 13.7302C12.7529 14.4644 13.4557 15.0366 14.2779 15.3745C15.1002 15.7124 16.005 15.8008 16.8779 15.6285C17.7508 15.4563 18.5526 15.0311 19.182 14.4067C19.8113 13.7824 20.2399 12.9869 20.4135 12.1209C20.5872 11.255 20.4981 10.3573 20.1575 9.54159C19.8169 8.72585 19.2401 8.02862 18.5001 7.53808Z" fill="#B9BDC7"/>
<path fill-rule="evenodd" clip-rule="evenodd" d="M16 28.5C22.9036 28.5 28.5 22.9036 28.5 16C28.5 9.09644 22.9036 3.5 16 3.5C9.09644 3.5 3.5 9.09644 3.5 16C3.5 22.9036 9.09644 28.5 16 28.5ZM16 30C23.732 30 30 23.732 30 16C30 8.26801 23.732 2 16 2C8.26801 2 2 8.26801 2 16C2 23.732 8.26801 30 16 30Z" fill="#B9BDC7"/>
</svg>
