<svg width="32" height="32" viewBox="0 0 32 32" fill="none" xmlns="http://www.w3.org/2000/svg">
<path d="M16 2C10.4922 2 6 6.49219 6 12C6 13.5469 6.63281 15.2891 7.5 17.1719C8.36719 19.0547 9.50781 21.0547 10.6484 22.8906C12.9219 26.5625 15.2031 29.5938 15.2031 29.5938C15.3906 29.8516 15.6875 30 16 30C16.3125 30 16.6094 29.8516 16.7969 29.5938C16.7969 29.5938 19.0781 26.5625 21.3516 22.8906C22.4922 21.0547 23.6328 19.0547 24.5 17.1719C25.3672 15.2891 26 13.5469 26 12C26 6.49219 21.5078 2 16 2ZM16 4C20.4297 4 24 7.57031 24 12C24 12.9375 23.5078 14.5625 22.6875 16.3281C21.8672 18.1016 20.7578 20.0469 19.6484 21.8359C17.8281 24.7734 16.6016 26.3984 16 27.2188C15.3984 26.3984 14.1719 24.7734 12.3516 21.8359C11.2422 20.0469 10.1328 18.1016 9.3125 16.3281C8.49219 14.5625 8 12.9375 8 12C8 7.57031 11.5703 4 16 4ZM12 8V16H14V8H12ZM16 8V16H18V14H19C20.2578 14 22 13 22 11.5L22 11C22 9.35156 20.6484 8 19 8H16ZM18 10H19C19.5625 10 20 10.4375 20 11C20 11.5625 19.5625 12 19 12H18V10Z" fill="#9FA4B3"/>
</svg>
