<svg width="32" height="32" viewBox="0 0 32 32" fill="none" xmlns="http://www.w3.org/2000/svg">
<path d="M9 13C9 12.4477 9.44772 12 10 12H18C18.5523 12 19 12.4477 19 13C19 13.5523 18.5523 14 18 14H10C9.44772 14 9 13.5523 9 13Z" fill="#9097AB"/>
<path d="M9 19C9 18.4477 9.44772 18 10 18H27C27.5523 18 28 18.4477 28 19C28 19.5523 27.5523 20 27 20H10C9.44771 20 9 19.5523 9 19Z" fill="#9097AB"/>
<path d="M9 25C9 24.4477 9.44772 24 10 24H21C21.5523 24 22 24.4477 22 25C22 25.5523 21.5523 26 21 26H10C9.44772 26 9 25.5523 9 25Z" fill="#9097AB"/>
<path d="M3 25C3 24.4477 3.44772 24 4 24H6C6.55228 24 7 24.4477 7 25C7 25.5523 6.55228 26 6 26H4C3.44772 26 3 25.5523 3 25Z" fill="#9097AB"/>
<path d="M9 7C9 6.44772 9.44772 6 10 6H25C25.5523 6 26 6.44772 26 7C26 7.55228 25.5523 8 25 8H10C9.44772 8 9 7.55228 9 7Z" fill="#9097AB"/>
<path d="M3 19C3 18.4477 3.44772 18 4 18H6C6.55228 18 7 18.4477 7 19C7 19.5523 6.55228 20 6 20H4C3.44772 20 3 19.5523 3 19Z" fill="#9097AB"/>
<path d="M3 13C3 12.4477 3.44772 12 4 12H6C6.55228 12 7 12.4477 7 13C7 13.5523 6.55228 14 6 14H4C3.44772 14 3 13.5523 3 13Z" fill="#9097AB"/>
<path d="M3 7C3 6.44772 3.44772 6 4 6H6C6.55228 6 7 6.44772 7 7C7 7.55228 6.55228 8 6 8H4C3.44772 8 3 7.55228 3 7Z" fill="#9097AB"/>
</svg>
