<svg width="32" height="32" viewBox="0 0 32 32" fill="none" xmlns="http://www.w3.org/2000/svg">
<path d="M12.9605 3V5H8.00425C6.37023 5 5.03048 6.35156 5.03048 8V13H3.04797V19H8.99551V13H7.013V8C7.013 7.4375 7.44667 7 8.00425 7H12.9605V9H18.9081V3H12.9605ZM14.943 5H16.9255V7H14.943V5ZM20.8906 5V7H23.8643C24.4219 7 24.8556 7.4375 24.8556 8V13H22.8731V19H28.8206V13H26.8381V8C26.8381 6.35156 25.4984 5 23.8643 5H20.8906ZM5.03048 15H7.013V17H5.03048V15ZM24.8556 15H26.8381V17H24.8556V15ZM5.03048 21V24C5.03048 25.6484 6.37023 27 8.00425 27H12.9605V29H18.9081V23H12.9605V25H8.00425C7.44667 25 7.013 24.5625 7.013 24V21H5.03048ZM24.8556 21V24C24.8556 24.5625 24.4219 25 23.8643 25H20.8906V27H23.8643C25.4984 27 26.8381 25.6484 26.8381 24V21H24.8556ZM14.943 25H16.9255V27H14.943V25Z" fill="#9FA4B3"/>
</svg>
