<?xml version="1.0" encoding="UTF-8"?>
<svg xmlns="http://www.w3.org/2000/svg" xmlns:xlink="http://www.w3.org/1999/xlink" viewBox="0 0 32 32" width="32px" height="32px">
<g id="surface38514158">
<path style=" stroke:none;fill-rule:nonzero;fill:rgb(62.352943%,64.313728%,70.19608%);fill-opacity:1;" d="M 23.125 4.039062 C 22.890625 4.023438 22.65625 4.039062 22.429688 4.078125 C 21.523438 4.21875 20.679688 4.773438 20.226562 5.671875 L 19.539062 7.046875 L 14.585938 12 L 11 12 C 9.671875 12 8.398438 12.53125 7.46875 13.46875 L 5.929688 15 L 10.757812 19.828125 L 4.046875 26.539062 L 5.453125 27.960938 L 12.171875 21.242188 L 17 26.070312 L 18.53125 24.53125 C 19.46875 23.601562 20 22.328125 20 21 L 20 17.414062 L 24.953125 12.460938 L 26.320312 11.773438 C 28.132812 10.875 28.53125 8.398438 27.109375 6.96875 L 25.03125 4.890625 C 24.492188 4.359375 23.8125 4.078125 23.125 4.039062 Z M 22.75 6.015625 C 23.046875 5.960938 23.367188 6.054688 23.617188 6.3125 L 25.6875 8.390625 C 26.1875 8.890625 26.0625 9.664062 25.429688 9.984375 L 23.765625 10.8125 L 18 16.585938 L 18 21 C 18 21.796875 17.6875 22.554688 17.125 23.125 L 17 23.242188 L 8.757812 15 L 8.875 14.875 C 9.445312 14.3125 10.203125 14 11 14 L 15.414062 14 L 21.1875 8.234375 L 22.015625 6.570312 C 22.171875 6.25 22.445312 6.0625 22.75 6.015625 Z M 22.75 6.015625 "/>
</g>
</svg>
