<svg width="32" height="32" viewBox="0 0 32 32" fill="none" xmlns="http://www.w3.org/2000/svg">
<path d="M15.1258 10.7677H16.3229C16.4625 10.7665 16.6009 10.7932 16.7301 10.8461C16.8594 10.8989 16.9767 10.977 17.0755 11.0758C17.1704 11.1683 17.244 11.2804 17.2911 11.4043C17.3382 11.5282 17.3578 11.6609 17.3483 11.7931L16.7498 19.9658C16.7171 20.2146 16.5951 20.4431 16.4064 20.6086C16.2177 20.7741 15.9753 20.8653 15.7244 20.8653C15.4734 20.8653 15.231 20.7741 15.0423 20.6086C14.8536 20.4431 14.7316 20.2146 14.6989 19.9658L14.1004 11.7931C14.0961 11.6573 14.1197 11.522 14.1697 11.3957C14.2197 11.2694 14.2951 11.1546 14.3912 11.0585C14.4873 10.9624 14.6021 10.887 14.7284 10.837C14.8547 10.787 14.99 10.7634 15.1258 10.7677Z" fill="#9FA4B3"/>
<path d="M16.5836 22.4552C16.329 22.286 16.0299 22.1962 15.7242 22.197C15.3152 22.1982 14.9235 22.3615 14.6347 22.651C14.346 22.9406 14.1838 23.3329 14.1838 23.7418C14.1838 24.0475 14.2745 24.3463 14.4445 24.6005C14.6144 24.8546 14.8559 25.0526 15.1384 25.1694C15.421 25.2862 15.7318 25.3165 16.0316 25.2565C16.3313 25.1966 16.6066 25.049 16.8224 24.8325C17.0383 24.6161 17.1851 24.3404 17.2442 24.0405C17.3033 23.7405 17.2721 23.4298 17.1545 23.1476C17.0369 22.8654 16.8382 22.6245 16.5836 22.4552Z" fill="#9FA4B3"/>
<path fill-rule="evenodd" clip-rule="evenodd" d="M13.0297 5.60578C14.1534 3.46474 17.2186 3.46474 18.3424 5.60578L28.0243 24.0523C29.0727 26.0499 27.624 28.4465 25.3679 28.4465H6.0041C3.74807 28.4465 2.2993 26.0499 3.34776 24.0523L13.0297 5.60578ZM16.5715 6.53526C16.1969 5.82158 15.1752 5.82158 14.8006 6.53526L5.11866 24.9818C4.76917 25.6476 5.2521 26.4465 6.0041 26.4465H25.3679C26.1199 26.4465 26.6029 25.6476 26.2534 24.9818L16.5715 6.53526Z" fill="#9FA4B3"/>
</svg>
