<svg width="32" height="32" viewBox="0 0 32 32" fill="none" xmlns="http://www.w3.org/2000/svg">
<path d="M9.00003 3C7.35159 3 6.00003 4.35156 6.00003 6V17H8.00003V6C8.00003 5.4375 8.43753 5 9.00003 5H18V11H24V17.0469H26V9.58594L19.4141 3H9.00003ZM20 6.41406L22.586 9H20V6.41406ZM16.0157 16.5469L13.5157 28.5469L15.4844 28.9531L17.9844 16.9531L16.0157 16.5469ZM10.6875 17.5547L6.13284 22.25L10.6875 26.9453L12.125 25.5547L8.92191 22.25L12.125 18.9453L10.6875 17.5547ZM21.4688 17.5547L20.0313 18.9453L23.2344 22.25L20.0313 25.5547L21.4688 26.9453L26.0235 22.25L21.4688 17.5547Z" fill="#9FA4B3"/>
</svg>
