<svg width="32" height="32" viewBox="0 0 32 32" fill="none" xmlns="http://www.w3.org/2000/svg">
<path d="M28.5039 8.1362L16.5039 1.1362C16.351 1.04698 16.1771 0.999962 16 0.999962C15.8229 0.999962 15.649 1.04698 15.4961 1.1362L3.4961 8.1362C3.34513 8.22427 3.21988 8.35037 3.13284 8.50193C3.04579 8.65349 2.99999 8.82522 3 9V23C2.99999 23.1748 3.04579 23.3465 3.13284 23.4981C3.21988 23.6496 3.34513 23.7757 3.4961 23.8638L15.4961 30.8638C15.649 30.953 15.8229 31 16 31C16.1771 31 16.351 30.953 16.5039 30.8638L28.5039 23.8638C28.6549 23.7757 28.7801 23.6496 28.8672 23.4981C28.9542 23.3465 29 23.1748 29 23V9C29 8.82522 28.9542 8.65349 28.8672 8.50193C28.7801 8.35037 28.6549 8.22427 28.5039 8.1362ZM16 3.1577L26.0156 9L16 14.8423L5.9844 9L16 3.1577ZM5 10.7412L15 16.5742V28.2588L5 22.4258V10.7412ZM17 28.2588V16.5742L27 10.7412V22.4258L17 28.2588Z" fill="#9FA4B3"/>
</svg>
