<svg width="32" height="32" viewBox="0 0 32 32" fill="none" xmlns="http://www.w3.org/2000/svg">
<path d="M14.4202 3C14.2862 3.00007 14.1566 3.04773 14.0545 3.13446C13.9523 3.2212 13.8844 3.34139 13.8626 3.47359L13.3128 6.8395C12.6517 7.03181 12.0213 7.29128 11.4271 7.61447L8.64937 5.63069C8.54062 5.55304 8.40787 5.51642 8.27468 5.52733C8.14149 5.53824 8.01648 5.59598 7.92182 5.6903L5.72258 7.88714C5.6286 7.98118 5.57077 8.10533 5.55926 8.23778C5.54775 8.37023 5.5833 8.50249 5.65965 8.61133L7.61379 11.4065C7.28559 12.0041 7.02034 12.638 6.8233 13.3053L3.47145 13.8628C3.33965 13.885 3.21997 13.9532 3.13366 14.0552C3.04736 14.1573 3.00002 14.2866 3.00003 14.4203V17.529C2.99979 17.6618 3.04636 17.7905 3.13155 17.8925C3.21675 17.9944 3.33514 18.0631 3.46593 18.0864L6.81999 18.6804C7.01596 19.3465 7.27953 19.9809 7.60827 20.5791L5.62984 23.3467C5.55218 23.4555 5.51556 23.5882 5.52647 23.7214C5.53739 23.8546 5.59513 23.9796 5.68946 24.0742L7.88759 26.2733C7.98143 26.3671 8.10531 26.425 8.23752 26.4367C8.36974 26.4484 8.50186 26.4132 8.61073 26.3373L11.4117 24.3767C12.0076 24.7018 12.6395 24.9632 13.3029 25.1572L13.8626 28.5275C13.8846 28.6595 13.9527 28.7794 14.0548 28.866C14.1569 28.9525 14.2863 29 14.4202 29H17.5291C17.6621 29.0002 17.791 28.9535 17.893 28.8681C17.9949 28.7827 18.0635 28.664 18.0867 28.533L18.6861 25.1495C19.3468 24.9525 19.9758 24.6872 20.5685 24.3601L23.3882 26.3384C23.4971 26.4147 23.6293 26.4503 23.7618 26.4388C23.8943 26.4273 24.0184 26.3694 24.1125 26.2755L26.3106 24.0753C26.4053 23.9804 26.4632 23.8549 26.4739 23.7212C26.4847 23.5875 26.4475 23.4544 26.3691 23.3456L24.3587 20.5549C24.6801 19.965 24.9391 19.3398 25.1315 18.6837L28.533 18.0876C28.664 18.0644 28.7827 17.9958 28.8681 17.8939C28.9535 17.7919 29.0002 17.6631 29 17.5301V14.4214C29 14.2874 28.9523 14.1578 28.8656 14.0557C28.7788 13.9536 28.6586 13.8856 28.5264 13.8639L25.1304 13.3086C24.9367 12.6532 24.677 12.0292 24.3554 11.4396L26.3382 8.61464C26.4146 8.5058 26.4501 8.37354 26.4386 8.24109C26.4271 8.10865 26.3693 7.98449 26.2753 7.89046L24.076 5.69251C23.9811 5.59779 23.8556 5.5399 23.7219 5.52918C23.5882 5.51846 23.4551 5.55562 23.3463 5.634L20.563 7.63545C19.97 7.30968 19.3406 7.04582 18.6784 6.85054L18.0867 3.46807C18.0638 3.33688 17.9953 3.21799 17.8933 3.13236C17.7913 3.04672 17.6623 2.99985 17.5291 3H14.4202ZM14.9015 4.13044H17.0544L17.6174 7.34401C17.6362 7.45179 17.6858 7.55182 17.7603 7.63196C17.8347 7.7121 17.9309 7.76892 18.037 7.79552C18.8637 8.00151 19.6401 8.32805 20.3488 8.75705C20.4436 8.81445 20.5531 8.84276 20.6638 8.83844C20.7745 8.83412 20.8815 8.79737 20.9715 8.73276L23.6168 6.83178L25.1392 8.35411L23.2557 11.0378C23.1928 11.1273 23.1573 11.2332 23.1533 11.3425C23.1494 11.4519 23.1773 11.56 23.2337 11.6538C23.6585 12.3608 23.9806 13.1323 24.1864 13.9544C24.2132 14.0615 24.2708 14.1584 24.352 14.2331C24.4333 14.3078 24.5346 14.3572 24.6435 14.375L27.8695 14.9027V17.0554L24.6369 17.6228C24.529 17.6419 24.429 17.6919 24.349 17.7668C24.2691 17.8416 24.2126 17.9381 24.1864 18.0445C23.983 18.8655 23.6606 19.637 23.2359 20.344C23.1789 20.4387 23.1509 20.5481 23.1554 20.6586C23.1599 20.769 23.1967 20.8758 23.2613 20.9655L25.1712 23.6161L23.6488 25.1395L20.9693 23.2595C20.8793 23.1965 20.7729 23.1611 20.6631 23.1575C20.5533 23.154 20.4449 23.1825 20.351 23.2396C19.6459 23.6686 18.8686 23.9967 18.0447 24.2056C17.9391 24.2322 17.8434 24.2888 17.7692 24.3685C17.6949 24.4482 17.6453 24.5477 17.6263 24.6549L17.0555 27.8696H14.8993L14.3672 24.6692C14.3491 24.5604 14.2995 24.4592 14.2245 24.3782C14.1496 24.2972 14.0526 24.2398 13.9454 24.2133C13.1182 24.0094 12.3383 23.6834 11.6247 23.2551C11.5311 23.199 11.4231 23.1712 11.314 23.1751C11.2049 23.1791 11.0992 23.2145 11.0098 23.2772L8.35128 25.1395L6.82772 23.6139L8.70678 20.9876C8.771 20.8976 8.80742 20.7908 8.81155 20.6803C8.81567 20.5699 8.7873 20.4606 8.72997 20.3661C8.29696 19.6507 7.96949 18.8709 7.76283 18.0401C7.73639 17.9343 7.6799 17.8384 7.60017 17.7639C7.52044 17.6895 7.42088 17.6397 7.31349 17.6206L4.13056 17.0554V14.8994L7.31128 14.3706C7.42002 14.3526 7.52111 14.3031 7.60212 14.2284C7.68313 14.1537 7.74053 14.0569 7.76725 13.95C7.97568 13.1163 8.303 12.3367 8.73438 11.6229C8.79127 11.5292 8.81968 11.4209 8.81615 11.3114C8.81262 11.2018 8.77731 11.0956 8.71451 11.0058L6.85753 8.3519L8.3822 6.82846L11.0175 8.71179C11.1072 8.77571 11.2136 8.81206 11.3236 8.81637C11.4336 8.82069 11.5425 8.79278 11.6369 8.73607C12.3467 8.30982 13.1284 7.98639 13.9565 7.78337C14.0641 7.75688 14.1616 7.69932 14.2368 7.61786C14.3119 7.53641 14.3615 7.43464 14.3793 7.32524L14.9015 4.13044ZM16 11.4783C13.5092 11.4783 11.4779 13.5094 11.4779 16C11.4779 18.4906 13.5092 20.5217 16 20.5217C18.4908 20.5217 20.5222 18.4906 20.5222 16C20.5222 13.5094 18.4908 11.4783 16 11.4783ZM16 12.6087C17.8799 12.6087 19.3916 14.1203 19.3916 16C19.3916 17.8797 17.8799 19.3913 16 19.3913C14.1202 19.3913 12.6084 17.8797 12.6084 16C12.6084 14.1203 14.1202 12.6087 16 12.6087Z" fill="#9FA4B3" stroke="#9FA4B3" stroke-width="0.5"/>
</svg>
