<svg width="32" height="32" viewBox="0 0 32 32" fill="none" xmlns="http://www.w3.org/2000/svg">
<path d="M16 2C10.4922 2 6 6.49219 6 12C6 13.5469 6.63281 15.2422 7.50781 17.0312C8.38281 18.8281 9.52344 20.7031 10.6719 22.4141C12.9531 25.8438 15.2266 28.6328 15.2266 28.6328L16 29.5859L16.7734 28.6328C16.7734 28.6328 19.0469 25.8438 21.3359 22.4141C22.4766 20.7031 23.6172 18.8281 24.4922 17.0312C25.3672 15.2422 26 13.5469 26 12C26 6.49219 21.5078 2 16 2ZM16 4C20.4297 4 24 7.57031 24 12C24 12.9375 23.5078 14.4922 22.6953 16.1562C21.8828 17.8281 20.7734 19.6406 19.6719 21.3125C17.8359 24.0625 16.5859 25.5781 16 26.3125C15.4141 25.5781 14.1641 24.0625 12.3281 21.3125C11.2266 19.6406 10.1172 17.8281 9.30469 16.1562C8.49219 14.4922 8 12.9375 8 12C8 7.57031 11.5703 4 16 4ZM16 10C14.8984 10 14 10.8984 14 12C14 13.1016 14.8984 14 16 14C17.1016 14 18 13.1016 18 12C18 10.8984 17.1016 10 16 10Z" fill="#9FA4B3"/>
</svg>
