<svg width="32" height="32" viewBox="0 0 32 32" fill="none" xmlns="http://www.w3.org/2000/svg">
<path d="M15.9314 4.00129C15.7692 4.01267 15.6122 4.06345 15.474 4.14921C15.3358 4.23498 15.2207 4.35315 15.1385 4.49348L2.13846 26.4935C2.04905 26.6452 2.0013 26.8179 2.00003 26.994C1.99875 27.1701 2.04401 27.3434 2.13122 27.4964C2.21842 27.6494 2.34449 27.7767 2.49666 27.8653C2.64883 27.954 2.82172 28.0009 2.99783 28.0013H28.9978C29.1739 28.0009 29.3468 27.954 29.499 27.8653C29.6512 27.7767 29.7772 27.6494 29.8645 27.4964C29.9517 27.3434 29.9969 27.1701 29.9956 26.994C29.9944 26.8179 29.9466 26.6452 29.8572 26.4935L16.8572 4.49348C16.7721 4.34889 16.652 4.22803 16.508 4.14202C16.364 4.05601 16.2006 4.00762 16.033 4.00129C15.9992 3.99957 15.9653 3.99957 15.9314 4.00129ZM15.9978 6.96223L21.3142 15.9622C19.9696 14.9495 18.1585 14.0013 15.9978 14.0013C13.8339 14.0013 12.0227 14.9517 10.6775 15.9661L15.9978 6.96223ZM16.3416 16.0325C18.9406 16.2032 20.8696 18.2025 21.5799 19.0013C20.838 19.8357 18.7744 22.0013 15.9978 22.0013C13.2212 22.0013 11.1577 19.8357 10.4158 19.0013C11.121 18.2081 13.0285 16.2358 15.5994 16.0404C15.1124 16.138 14.6792 16.4134 14.3841 16.8129C14.089 17.2123 13.953 17.7073 14.0028 18.2015C14.0525 18.6956 14.2843 19.1536 14.653 19.4863C15.0218 19.819 15.5012 20.0026 15.9978 20.0013C16.497 19.9992 16.9773 19.8106 17.3444 19.4725C17.7115 19.1343 17.939 18.6711 17.982 18.1739C18.0251 17.6766 17.8807 17.1812 17.5772 16.785C17.2736 16.3888 16.8329 16.1204 16.3416 16.0325ZM8.38846 19.8372C8.8662 20.4642 11.7286 24.0013 15.9978 24.0013C20.2671 24.0013 23.1295 20.4642 23.6072 19.8372L27.2478 26.0013H4.74783L8.38846 19.8372Z" fill="#9FA4B3"/>
</svg>
