<svg width="32" height="32" viewBox="0 0 32 32" fill="none" xmlns="http://www.w3.org/2000/svg">
<path d="M16 3L4 7.35938V29.0625H28V7.35938L16 3ZM16 5.125L26 8.76562V27.0625H18V23.0625H14V27.0625H6V8.76562L16 5.125ZM8 11.0625V13.0625H12V11.0625H8ZM14 11.0625V13.0625H18V11.0625H14ZM20 11.0625V13.0625H24V11.0625H20ZM8 15.0625V17.0625H12V15.0625H8ZM14 15.0625V17.0625H18V15.0625H14ZM20 15.0625V17.0625H24V15.0625H20ZM8 19.0625V21.0625H12V19.0625H8ZM14 19.0625V21.0625H18V19.0625H14ZM20 19.0625V21.0625H24V19.0625H20ZM8 23.0625V25.0625H12V23.0625H8ZM20 23.0625V25.0625H24V23.0625H20Z" fill="#9FA4B3"/>
</svg>
