<svg width="32" height="32" viewBox="0 0 32 32" fill="none" xmlns="http://www.w3.org/2000/svg">
<path d="M23.7452 3C22.3545 3 21.042 3.54688 20.0655 4.53125L16.4483 8.14062C15.1514 9.4375 14.6905 11.2578 15.0655 12.9453L17.0655 10.9531C17.2061 10.4375 17.4639 9.95313 17.8623 9.55469L21.4795 5.9375C22.0889 5.33594 22.8936 5 23.7452 5C24.6045 5 25.4092 5.33594 26.0498 5.97656C26.6592 6.58594 26.9952 7.39062 26.9952 8.25C26.9952 9.10156 26.6592 9.91406 26.0498 10.5156L22.4405 14.1328C22.0577 14.5156 21.5733 14.7734 21.0655 14.9141L19.042 16.9375C19.4092 17.0234 19.7842 17.0703 20.1748 17.0703C21.5655 17.0703 22.8701 16.5312 23.8545 15.5469L27.4639 11.9375C29.4952 9.89844 29.503 6.59375 27.4327 4.53125C26.4483 3.54688 25.1436 3 23.7452 3ZM19.9717 10.9922C19.7139 11 19.4717 11.1094 19.2842 11.2969L11.2842 19.2969C10.8936 19.6797 10.8936 20.3203 11.2842 20.7109C11.6748 21.1016 12.3077 21.1016 12.7061 20.7109L20.7061 12.7109C21.003 12.4219 21.0889 11.9844 20.9248 11.6016C20.7686 11.2188 20.3858 10.9766 19.9717 10.9922ZM11.8155 14.9297C10.4248 14.9297 9.12015 15.4688 8.13578 16.4531L4.51859 20.0703C2.48734 22.1016 2.48734 25.4062 4.55765 27.4766C5.57328 28.4922 6.90921 29 8.23734 29C9.57328 29 10.9092 28.4922 11.9248 27.4766L15.5342 23.8672C16.8389 22.5625 17.2998 20.7422 16.9248 19.0625L14.9248 21.0547C14.7842 21.5625 14.5264 22.0469 14.128 22.4453L10.5108 26.0625C9.26078 27.3125 7.2139 27.3125 5.93265 26.0234C5.32328 25.4141 4.99515 24.6094 4.99515 23.75C4.99515 22.8984 5.32328 22.0938 5.93265 21.4844L9.54984 17.8672C9.94046 17.4766 10.4248 17.2109 10.9405 17.0625L12.9483 15.0625C12.5811 14.9844 12.2061 14.9297 11.8155 14.9297Z" fill="#9FA4B3"/>
</svg>
