<svg width="32" height="32" viewBox="0 0 32 32" fill="none" xmlns="http://www.w3.org/2000/svg">
<path d="M8.00003 4C6.3555 4 5.00003 5.35547 5.00003 7V11C5.00003 12.6445 6.3555 14 8.00003 14C9.64456 14 11 12.6445 11 11V7C11 5.35547 9.64456 4 8.00003 4ZM13 4V14H15V4H13ZM20 4C18.3555 4 17 5.35547 17 7V11C17 12.6445 18.3555 14 20 14C21.6446 14 23 12.6445 23 11V7C23 5.35547 21.6446 4 20 4ZM25 4V14H27V4H25ZM8.00003 6C8.56253 6 9.00003 6.4375 9.00003 7V11C9.00003 11.5625 8.56253 12 8.00003 12C7.43753 12 7.00003 11.5625 7.00003 11V7C7.00003 6.4375 7.43753 6 8.00003 6ZM20 6C20.5625 6 21 6.4375 21 7V11C21 11.5625 20.5625 12 20 12C19.4375 12 19 11.5625 19 11V7C19 6.4375 19.4375 6 20 6ZM12 17.75C10.3555 17.75 9.00003 19.1055 9.00003 20.75V24.75C9.00003 26.3945 10.3555 27.75 12 27.75C13.6446 27.75 15 26.3945 15 24.75V20.75C15 19.1055 13.6446 17.75 12 17.75ZM5.00003 18V28H7.00003V18H5.00003ZM20 18C18.3555 18 17 19.3555 17 21V25C17 26.6445 18.3555 28 20 28C21.6446 28 23 26.6445 23 25V21C23 19.3555 21.6446 18 20 18ZM25 18V28H27V18H25ZM12 19.75C12.5625 19.75 13 20.1875 13 20.75V24.75C13 25.3125 12.5625 25.75 12 25.75C11.4375 25.75 11 25.3125 11 24.75V20.75C11 20.1875 11.4375 19.75 12 19.75ZM20 20C20.5625 20 21 20.4375 21 21V25C21 25.5625 20.5625 26 20 26C19.4375 26 19 25.5625 19 25V21C19 20.4375 19.4375 20 20 20Z" fill="#9FA4B3"/>
</svg>
