<svg width="32" height="32" viewBox="0 0 32 32" fill="none" xmlns="http://www.w3.org/2000/svg">
<path d="M13 3C11.3516 3 10 4.35156 10 6V7H5C3.35156 7 2 8.35156 2 10V26C2 27.6484 3.35156 29 5 29H27C28.6484 29 30 27.6484 30 26V10C30 8.35156 28.6484 7 27 7H22V6C22 4.35156 20.6484 3 19 3H13ZM13 5H19C19.5625 5 20 5.4375 20 6V7H12V6C12 5.4375 12.4375 5 13 5ZM5 9H27C27.5625 9 28 9.4375 28 10V19H4V10C4 9.4375 4.4375 9 5 9ZM14 15V17H18V15H14ZM4 21H28V26C28 26.5625 27.5625 27 27 27H5C4.4375 27 4 26.5625 4 26V21Z" fill="#9FA4B3"/>
</svg>
