<svg width="32" height="32" viewBox="0 0 32 32" fill="none" xmlns="http://www.w3.org/2000/svg">
<g clip-path="url(#clip0_22_613)">
<path d="M26 2H8.00003C7.4696 2 6.96089 2.21071 6.58582 2.58579C6.21074 2.96086 6.00003 3.46957 6.00003 4V8H4.00003V10H6.00003V15H4.00003V17H6.00003V22H4.00003V24H6.00003V28C6.00003 28.5304 6.21074 29.0391 6.58582 29.4142C6.96089 29.7893 7.4696 30 8.00003 30H26C26.5305 30 27.0392 29.7893 27.4142 29.4142C27.7893 29.0391 28 28.5304 28 28V4C28 3.46957 27.7893 2.96086 27.4142 2.58579C27.0392 2.21071 26.5305 2 26 2ZM26 28H8.00003V24H10V22H8.00003V17H10V15H8.00003V10H10V8H8.00003V4H26V28Z" fill="#9FA4B3"/>
<path d="M22 8H14V10H22V8Z" fill="#9FA4B3"/>
<path d="M22 15H14V17H22V15Z" fill="#9FA4B3"/>
<path d="M22 22H14V24H22V22Z" fill="#9FA4B3"/>
</g>
<defs>
<clipPath id="clip0_22_613">
<rect width="32" height="32" fill="white"/>
</clipPath>
</defs>
</svg>
