<svg width="32" height="32" viewBox="0 0 32 32" fill="none" xmlns="http://www.w3.org/2000/svg">
<path d="M24.6947 5.28173L17.3101 1.08174C17.216 1.02821 17.109 1 17 1C16.891 1 16.784 1.02821 16.6899 1.08174L9.30529 5.28173C9.21239 5.33457 9.13531 5.41023 9.08175 5.50117C9.02818 5.59211 9 5.69514 9 5.80001V14.2C9 14.3049 9.02818 14.4079 9.08175 14.4988C9.13531 14.5898 9.21239 14.6654 9.30529 14.7183L16.6899 18.9183C16.784 18.9718 16.891 19 17 19C17.109 19 17.216 18.9718 17.3101 18.9183L24.6947 14.7183C24.7876 14.6654 24.8647 14.5898 24.9183 14.4988C24.9718 14.4079 25 14.3049 25 14.2V5.80001C25 5.69514 24.9718 5.59211 24.9183 5.50117C24.8647 5.41023 24.7876 5.33457 24.6947 5.28173ZM17 2.29464L23.1634 5.80001L17 9.30538L10.8366 5.80001L17 2.29464ZM10.2308 6.84473L16.3846 10.3445V17.3553L10.2308 13.8555V6.84473ZM17.6154 17.3553V10.3445L23.7692 6.84473V13.8555L17.6154 17.3553Z" fill="#9FA4B3"/>
<path d="M17.7138 17.2817L10.7907 13.0817C10.7025 13.0282 10.6022 13 10.5 13C10.3978 13 10.2975 13.0282 10.2093 13.0817L3.28621 17.2817C3.19912 17.3346 3.12686 17.4102 3.07664 17.5012C3.02642 17.5921 3 17.6951 3 17.8V26.2C3 26.3049 3.02642 26.4079 3.07664 26.4988C3.12686 26.5898 3.19912 26.6654 3.28621 26.7183L10.2093 30.9183C10.2975 30.9718 10.3978 31 10.5 31C10.6022 31 10.7025 30.9718 10.7907 30.9183L17.7138 26.7183C17.8009 26.6654 17.8731 26.5898 17.9234 26.4988C17.9736 26.4079 18 26.3049 18 26.2V17.8C18 17.6951 17.9736 17.5921 17.9234 17.5012C17.8731 17.4102 17.8009 17.3346 17.7138 17.2817ZM10.5 14.2946L16.2782 17.8L10.5 21.3054L4.72177 17.8L10.5 14.2946ZM4.15385 18.8447L9.92308 22.3445V29.3553L4.15385 25.8555V18.8447ZM11.0769 29.3553V22.3445L16.8462 18.8447V25.8555L11.0769 29.3553Z" fill="#9FA4B3"/>
<path d="M30.7138 17.2817L23.7907 13.0817C23.7025 13.0282 23.6022 13 23.5 13C23.3978 13 23.2975 13.0282 23.2093 13.0817L16.2862 17.2817C16.1991 17.3346 16.1269 17.4102 16.0766 17.5012C16.0264 17.5921 16 17.6951 16 17.8V26.2C16 26.3049 16.0264 26.4079 16.0766 26.4988C16.1269 26.5898 16.1991 26.6654 16.2862 26.7183L23.2093 30.9183C23.2975 30.9718 23.3978 31 23.5 31C23.6022 31 23.7025 30.9718 23.7907 30.9183L30.7138 26.7183C30.8009 26.6654 30.8731 26.5898 30.9234 26.4988C30.9736 26.4079 31 26.3049 31 26.2V17.8C31 17.6951 30.9736 17.5921 30.9234 17.5012C30.8731 17.4102 30.8009 17.3346 30.7138 17.2817ZM23.5 14.2946L29.2782 17.8L23.5 21.3054L17.7218 17.8L23.5 14.2946ZM17.1538 18.8447L22.9231 22.3445V29.3553L17.1538 25.8555V18.8447ZM24.0769 29.3553V22.3445L29.8462 18.8447V25.8555L24.0769 29.3553Z" fill="#9FA4B3"/>
</svg>
