<svg width="32" height="32" viewBox="0 0 32 32" fill="none" xmlns="http://www.w3.org/2000/svg">
<path d="M26 18C25.1156 18.0027 24.2572 18.2987 23.559 18.8415C22.8609 19.3844 22.3626 20.1436 22.1421 21H17V11H22.1421C22.3855 11.9427 22.9643 12.7642 23.7701 13.3106C24.5759 13.857 25.5533 14.0908 26.5191 13.9681C27.4849 13.8454 28.3728 13.3747 29.0164 12.6442C29.66 11.9137 30.0151 10.9736 30.0151 10C30.0151 9.02643 29.66 8.08628 29.0164 7.35577C28.3728 6.62526 27.4849 6.15456 26.5191 6.03188C25.5533 5.90921 24.5759 6.14299 23.7701 6.6894C22.9643 7.23581 22.3855 8.05734 22.1421 9H17C16.4697 9.00053 15.9613 9.21142 15.5864 9.58637C15.2114 9.96133 15.0005 10.4697 15 11V15H9.85791C9.61451 14.0573 9.03568 13.2358 8.2299 12.6894C7.42412 12.143 6.44672 11.9092 5.48091 12.0319C4.51509 12.1546 3.62717 12.6253 2.98359 13.3558C2.34 14.0863 1.98492 15.0264 1.98492 16C1.98492 16.9736 2.34 17.9137 2.98359 18.6442C3.62717 19.3747 4.51509 19.8454 5.48091 19.9681C6.44672 20.0908 7.42412 19.857 8.2299 19.3106C9.03568 18.7642 9.61451 17.9427 9.85791 17H15V21C15.0005 21.5303 15.2114 22.0387 15.5864 22.4136C15.9613 22.7886 16.4697 22.9995 17 23H22.1421C22.3304 23.7227 22.7175 24.3781 23.2595 24.8919C23.8016 25.4056 24.4768 25.757 25.2086 25.9063C25.9403 26.0555 26.6993 25.9965 27.3992 25.7361C28.0991 25.4756 28.712 25.0242 29.1682 24.4329C29.6244 23.8416 29.9057 23.1343 29.9801 22.3911C30.0545 21.648 29.919 20.899 29.589 20.229C29.2591 19.559 28.7479 18.995 28.1134 18.601C27.479 18.207 26.7468 17.9988 26 18ZM26 8C26.3956 8 26.7823 8.1173 27.1111 8.33706C27.44 8.55683 27.6964 8.86918 27.8478 9.23464C27.9991 9.60009 28.0387 10.0022 27.9616 10.3902C27.8844 10.7781 27.6939 11.1345 27.4142 11.4142C27.1345 11.6939 26.7782 11.8844 26.3902 11.9616C26.0022 12.0387 25.6001 11.9991 25.2346 11.8478C24.8692 11.6964 24.5568 11.44 24.3371 11.1111C24.1173 10.7822 24 10.3956 24 10C24.0005 9.46973 24.2114 8.96133 24.5864 8.58637C24.9613 8.21142 25.4697 8.00053 26 8ZM6.00001 18C5.60444 18 5.21777 17.8827 4.88887 17.6629C4.55997 17.4432 4.30362 17.1308 4.15225 16.7654C4.00087 16.3999 3.96127 15.9978 4.03844 15.6098C4.11561 15.2219 4.30609 14.8655 4.58579 14.5858C4.8655 14.3061 5.22186 14.1156 5.60983 14.0384C5.99779 13.9613 6.39992 14.0009 6.76537 14.1522C7.13083 14.3036 7.44318 14.56 7.66295 14.8889C7.88271 15.2178 8.00001 15.6044 8.00001 16C7.99948 16.5303 7.78859 17.0387 7.41364 17.4136C7.03868 17.7886 6.53028 17.9995 6.00001 18ZM26 24C25.6044 24 25.2178 23.8827 24.8889 23.6629C24.56 23.4432 24.3036 23.1308 24.1522 22.7654C24.0009 22.3999 23.9613 21.9978 24.0384 21.6098C24.1156 21.2219 24.3061 20.8655 24.5858 20.5858C24.8655 20.3061 25.2219 20.1156 25.6098 20.0384C25.9978 19.9613 26.3999 20.0009 26.7654 20.1522C27.1308 20.3036 27.4432 20.56 27.6629 20.8889C27.8827 21.2178 28 21.6044 28 22C27.9995 22.5303 27.7886 23.0387 27.4136 23.4136C27.0387 23.7886 26.5303 23.9995 26 24Z" fill="#9FA4B3"/>
</svg>
