<svg width="32" height="32" viewBox="0 0 32 32" fill="none" xmlns="http://www.w3.org/2000/svg">
<path d="M9 2.01046V30H12.7967C12.6131 29.747 12.2389 29.6379 11.9876 29.449C11.5257 29.1018 11.1496 28.6436 10.9159 28.1131C9.85867 25.7131 11.1434 23.1893 12.571 21.2572C12.9815 20.7017 13.4454 20.1852 13.8443 19.6219C13.9896 19.4167 14.2379 19.1263 14.2695 18.8689C14.3062 18.57 13.9511 18.4696 13.7303 18.3921C13.1767 18.1981 12.4773 18.0124 11.9887 17.6834C11.3337 17.2424 11.6606 16.1695 11.7884 15.5335C11.8305 15.3242 11.8663 15.1031 11.9465 14.9045C12.2832 14.0705 13.6133 13.9768 14.3527 13.6907C14.6447 13.5777 15.1435 13.5089 15.2096 13.1406C15.2735 12.7844 15.0932 12.4039 14.9855 12.0741C14.8106 11.5383 14.6882 10.9811 14.5337 10.4388C14.0269 8.6597 13.368 6.49627 14.227 4.71506C14.5143 4.11948 14.9324 3.59629 15.4108 3.1483C15.8836 2.70551 16.5695 2.18978 17.2158 2.07335C16.9534 1.96211 16.6267 2.01046 16.3444 2.01046H14.7261H9ZM15.4108 16.0996C16.0226 16.243 16.608 16.5308 17.2158 16.7057C17.8404 16.8855 18.9746 17.1076 19.3591 17.6723C19.8401 18.3789 19.0565 19.3594 18.6608 19.9256C17.8758 21.0489 17.0557 22.1429 16.3555 23.3221C16.0568 23.8253 15.6091 24.4935 15.5987 25.094C15.5949 25.3167 15.6302 25.5183 15.7186 25.7227C16.0764 26.5502 16.7542 26.4777 17.527 26.4777C17.9117 26.4777 18.3669 26.4163 18.6088 26.795C18.802 27.0973 18.55 27.5785 18.4135 27.8615C18.1049 28.5008 17.8402 29.2832 17.8382 30H24V2.01046L23.0041 2.01051C22.8802 2.01137 22.7105 1.9915 22.606 2.0751C22.4221 2.22227 22.5062 2.68248 22.5062 2.89103V4.40057C22.5061 4.6499 22.5314 4.93225 22.3906 5.1517C22.1257 5.56444 21.6609 5.41776 21.2614 5.40788C20.3536 5.38537 19.1109 5.34109 18.7713 6.41331C18.6237 6.87944 18.711 7.44722 18.7615 7.92285C18.9035 9.26352 19.3277 10.4905 19.7575 11.7596C19.9801 12.4167 20.5235 13.4535 20.1835 14.1495C19.9935 14.5386 19.5424 14.6849 19.163 14.8046C18.2884 15.0806 17.4086 15.3438 16.5311 15.6109C16.185 15.7163 15.6123 15.7761 15.4108 16.0996Z" fill="#9097AB"/>
</svg>
