<svg width="32" height="32" viewBox="0 0 32 32" fill="none" xmlns="http://www.w3.org/2000/svg">
<path d="M26 4.01H6C5.46957 4.01 4.96086 4.22072 4.58579 4.59579C4.21071 4.97086 4 5.47957 4 6.01V26.01C4 26.5404 4.21071 27.0491 4.58579 27.4242C4.96086 27.7993 5.46957 28.01 6 28.01H26C26.5304 28.01 27.0391 27.7993 27.4142 27.4242C27.7893 27.0491 28 26.5404 28 26.01V6.01C28 5.47957 27.7893 4.97086 27.4142 4.59579C27.0391 4.22072 26.5304 4.01 26 4.01ZM26 6.01V10.01H6V6.01H26ZM6 26.01V12.01H26V26.01H6Z" fill="#9FA4B3"/>
<path d="M10.76 16.18L13.58 19.01L10.76 21.84L12.17 23.25L16.41 19.01L12.17 14.77L10.76 16.18Z" fill="#9FA4B3"/>
</svg>
