<svg width="32" height="32" viewBox="0 0 32 32" fill="none" xmlns="http://www.w3.org/2000/svg">
<path d="M14.1914 3C10.6055 3 7.02347 4.36328 4.293 7.09375C3.90237 7.48438 3.90237 8.11719 4.293 8.50781L7.89847 12.1133C6.84378 13.4687 6.19144 15.1484 6.19144 16.9922V17.9922C6.19144 18.543 6.64066 18.9922 7.19144 18.9922H11.1914C11.7539 18.9922 12.1914 19.4297 12.1914 19.9922V23.9922C12.1914 24.6602 11.8321 25.4414 11.2305 26.0312C10.6289 26.6211 9.82816 26.9922 9.08597 26.9922H7.19144C6.83206 26.9883 6.49612 27.1758 6.31253 27.4883C6.13284 27.8008 6.13284 28.1836 6.31253 28.4961C6.49612 28.8086 6.83206 28.9961 7.19144 28.9922H9.08597C10.4571 28.9922 11.711 28.3633 12.6328 27.4531C13.5547 26.543 14.1914 25.3242 14.1914 23.9922V22.8125C14.1914 22.7891 14.1914 22.7656 14.1914 22.7422V19.9922C14.1914 19.4297 14.6289 18.9922 15.1914 18.9922C15.7539 18.9922 16.1914 19.4297 16.1914 19.9922V27.9922C16.1914 28.543 16.6407 28.9922 17.1914 28.9922H25.1914C25.7422 28.9922 26.1914 28.543 26.1914 27.9922V27.6719C26.1914 27.418 26.0938 27.1719 25.918 26.9844L24.9336 25.9414C29.5196 20.4453 29.2461 12.25 24.0899 7.09375C23.4414 6.44531 22.7383 5.88281 22.0039 5.38672C21.8516 5.17578 21.6211 5.03516 21.3672 4.99219C19.1641 3.67578 16.6836 3 14.1914 3ZM14.1914 5.10547V9.02734C13.6758 9.02734 13.1758 9.06641 12.6875 9.16016L11.2344 5.53516C12.2071 5.26953 13.1953 5.12109 14.1914 5.10547ZM16.1914 5.24609C17.4141 5.4375 18.6094 5.82031 19.7383 6.39063L17.5274 9.78906C17.1016 9.57422 16.6563 9.39453 16.1914 9.26563V5.24609ZM9.33987 6.17969L10.7852 9.80078C10.2617 10.0508 9.77347 10.3555 9.32034 10.707L6.55472 7.94141C7.418 7.21484 8.3555 6.63281 9.33987 6.17969ZM21.4336 7.45703C21.8633 7.77734 22.2852 8.11719 22.6758 8.50781C23.0821 8.91406 23.4414 9.35156 23.7774 9.79688L20.25 12.0234C19.9258 11.6211 19.5703 11.2578 19.1836 10.9219L21.4336 7.45703ZM14.5157 11C17.5625 11.1602 20.1914 14.2617 20.1914 17.3867V19.3008C20.168 19.4258 20.168 19.5547 20.1914 19.6797V21.2812C20.1914 23.0547 20.9258 24.7539 22.2188 25.9688L22.2227 25.9727L23.1836 26.9922H18.1914V19.9922C18.1914 18.3477 16.836 16.9922 15.1914 16.9922C14.9336 16.9961 14.6914 17.0977 14.5078 17.2773C14.0352 17.4062 13.543 17.5 13.1914 17.8242C12.6563 17.332 11.9688 16.9922 11.1914 16.9922H8.19144C8.19144 13.5586 11.0352 10.8164 14.5157 11ZM24.8477 11.4844C25.4258 12.5977 25.7735 13.7852 25.9766 14.9922H21.8164C21.6836 14.5508 21.5157 14.125 21.3164 13.7109L24.8477 11.4844ZM22.1602 16.9922H26.1485C26.1485 18.0156 26.0157 19.0312 25.7539 20.0273L22.1914 18.7812V17.3867C22.1914 17.2539 22.168 17.125 22.1602 16.9922ZM22.1914 20.9023L25.1094 21.9258C24.7032 22.8203 24.1953 23.6797 23.5586 24.4727C22.6875 23.6367 22.1914 22.4883 22.1914 21.2812V20.9023Z" fill="#9FA4B3"/>
</svg>
