<svg width="32" height="32" viewBox="0 0 32 32" fill="none" xmlns="http://www.w3.org/2000/svg">
<g clip-path="url(#clip0_59_492)">
<path d="M15 3C10.41 3 6.3745 5.398 4.0625 9H4V9.10547C2.74 11.1075 2 13.466 2 16C2 18.534 2.74 20.8925 4 22.8945V23H4.0625C6.3765 26.602 10.41 29 15 29H16V17H28V16C28 13.466 27.26 11.1075 26 9.10547V9H25.9375C23.6255 5.398 19.59 3 15 3ZM14 5.25781V9H11.207C11.953 7.106 12.962 5.78581 14 5.25781ZM16 5.25781C17.038 5.78581 18.047 7.106 18.793 9H16V5.25781ZM19.5234 6.01172C21.0474 6.70572 22.3795 7.728 23.4375 9H20.9219C20.5399 7.872 20.0694 6.86372 19.5234 6.01172ZM10.4766 6.01562C9.92856 6.86562 9.45813 7.872 9.07812 9H6.5625C7.6205 7.728 8.95256 6.70762 10.4766 6.01562ZM5.21094 11H8.51953C8.24753 12.242 8.08134 13.588 8.02734 15H4.04297C4.17297 13.57 4.58494 12.22 5.21094 11ZM10.5938 11H14V15H10.043C10.105 13.542 10.2978 12.198 10.5938 11ZM16 11H19.4062C19.7022 12.198 19.893 13.542 19.957 15H16V11ZM21.4805 11H24.7891C25.4151 12.22 25.829 13.57 25.957 15H21.9727C21.9167 13.588 21.7505 12.242 21.4805 11ZM4.04297 17H8.02734C8.08334 18.412 8.24953 19.758 8.51953 21H5.21094C4.58494 19.78 4.17297 18.43 4.04297 17ZM10.043 17H14V21H10.5938C10.2978 19.802 10.105 18.458 10.043 17ZM18 19L22 29L23.8789 26.3125L27 29L29 26.7578L25.707 24.0234L28 22L18 19ZM6.5625 23H9.07812C9.46012 24.128 9.93056 25.1344 10.4766 25.9844C8.95256 25.2924 7.6205 24.272 6.5625 23ZM11.207 23H14V26.7422C12.962 26.2142 11.953 24.894 11.207 23Z" fill="#9FA4B3"/>
</g>
<defs>
<clipPath id="clip0_59_492">
<rect width="32" height="32" fill="white"/>
</clipPath>
</defs>
</svg>
