<svg width="32" height="32" viewBox="0 0 32 32" fill="none" xmlns="http://www.w3.org/2000/svg">
<g clip-path="url(#clip0_73_515)">
<path d="M6 3C4.35156 3 3 4.35156 3 6V22C3 23.6484 4.35156 25 6 25H9V29.8672L16.3047 25H26C27.6484 25 29 23.6484 29 22V6C29 4.35156 27.6484 3 26 3H6ZM6 5H26C26.5625 5 27 5.4375 27 6V22C27 22.5625 26.5625 23 26 23H15.6953L11 26.1328V23H6C5.4375 23 5 22.5625 5 22V6C5 5.4375 5.4375 5 6 5Z" fill="#9FA4B3"/>
</g>
<defs>
<clipPath id="clip0_73_515">
<rect width="32" height="32" fill="white"/>
</clipPath>
</defs>
</svg>
