<svg width="32" height="32" viewBox="0 0 32 32" fill="none" xmlns="http://www.w3.org/2000/svg">
<g clip-path="url(#clip0_22_637)">
<path fill-rule="evenodd" clip-rule="evenodd" d="M25.9044 27.4362L19.5032 21.0364L19.3295 21.1679C17.7494 22.365 15.7913 23.0833 13.6667 23.0833C8.48181 23.0833 4.25003 18.8516 4.25003 13.6667C4.25003 8.48178 8.48181 4.25 13.6667 4.25C18.8516 4.25 23.0834 8.48178 23.0834 13.6667C23.0834 15.7913 22.365 17.7493 21.1679 19.3295L21.0364 19.5032L27.4326 25.9008L27.4363 25.9043C27.5402 26.0041 27.6232 26.1237 27.6804 26.256C27.7376 26.3883 27.7678 26.5307 27.7693 26.6748C27.7708 26.819 27.7435 26.9619 27.689 27.0954C27.6345 27.2288 27.5539 27.3501 27.452 27.452C27.3501 27.5539 27.2289 27.6345 27.0954 27.6889C26.962 27.7434 26.819 27.7707 26.6749 27.7693C26.5307 27.7678 26.3883 27.7376 26.256 27.6804C26.1237 27.6232 26.0042 27.5402 25.9044 27.4362ZM18.9123 18.6673L18.9315 18.6534L18.9477 18.6362C20.1666 17.3406 20.9167 15.5968 20.9167 13.6667C20.9167 9.64681 17.6866 6.41667 13.6667 6.41667C9.64684 6.41667 6.4167 9.64681 6.4167 13.6667C6.4167 17.6865 9.64684 20.9167 13.6667 20.9167C15.5982 20.9167 17.3431 20.1654 18.6389 18.945L18.6561 18.9288L18.67 18.9096C18.7374 18.8165 18.8192 18.7347 18.9123 18.6673Z" fill="#9FA4B3"/>
</g>
<defs>
<clipPath id="clip0_22_637">
<rect width="32" height="32" fill="white"/>
</clipPath>
</defs>
</svg>
