<svg width="32" height="32" viewBox="0 0 32 32" fill="none" xmlns="http://www.w3.org/2000/svg">
<path d="M16 3C13.2969 3 10.3516 3.79688 8.01566 5.57812C5.67972 7.36719 4.00003 10.2109 4.00003 14C4.00003 17.2734 5.81253 20.8359 6.00003 21.2031V22C6.00003 23.7578 7.46878 25 9.00003 25C9.37503 25 9.59378 25.1094 9.74222 25.2578C9.89066 25.4062 10 25.625 10 26C10 27.5312 11.2422 29 13 29H19C20.7578 29 22 27.5312 22 26C22 25.625 22.1094 25.4062 22.2578 25.2578C22.4063 25.1094 22.625 25 23 25C23.8203 25 24.6016 24.7109 25.1563 24.1562C25.711 23.6016 26 22.8203 26 22V21.1953C26.1875 20.8281 28 17.2344 28 13.7969C28 10.0938 26.2578 7.30469 23.8985 5.54688C21.5391 3.78906 18.6094 3 16 3ZM16 5C18.1953 5 20.7578 5.70312 22.7032 7.15625C24.6485 8.60156 26 10.7031 26 13.7969C26 16.5859 24.1016 20.5547 24.1016 20.5547L24 20.7656V22C24 22.375 23.8907 22.5938 23.7422 22.7422C23.5938 22.8906 23.375 23 23 23C22.1797 23 21.3985 23.2891 20.8438 23.8438C20.2891 24.3984 20 25.1797 20 26C20 26.4688 19.6407 27 19 27H13C12.3594 27 12 26.4688 12 26C12 25.1797 11.711 24.3984 11.1563 23.8438C10.6016 23.2891 9.82034 23 9.00003 23C8.53128 23 8.00003 22.6406 8.00003 22V20.7656L7.89066 20.5547C7.89066 20.5547 6.00003 16.5547 6.00003 14C6.00003 10.7891 7.32034 8.63281 9.23441 7.17188C11.1485 5.70312 13.7032 5 16 5ZM11 15C9.34378 15 8.00003 16.3438 8.00003 18C8.00003 19.6562 9.34378 21 11 21C12.6563 21 14 19.6562 14 18C14 16.3438 12.6563 15 11 15ZM21 15C19.3438 15 18 16.3438 18 18C18 19.6562 19.3438 21 21 21C22.6563 21 24 19.6562 24 18C24 16.3438 22.6563 15 21 15ZM16 21C15.2032 21.2031 14 23 14 24.1953C14 24.6016 14.3985 25 14.7969 25C15.6016 25 15.7969 24.3984 16 24C16.2032 24.3984 16.3985 25 17.2032 25C17.6016 25 18 24.6016 18 24.1953C18 23 16.7969 21.2031 16 21Z" fill="#9FA4B3"/>
</svg>
