<svg width="32" height="32" viewBox="0 0 32 32" fill="none" xmlns="http://www.w3.org/2000/svg">
<path d="M18.8721 4.18817C18.4402 3.678 17.9526 3.21656 17.4185 2.81328C18.425 1.69972 19.8808 1 21.5 1C24.5376 1 27 3.46243 27 6.5C27 9.53757 24.5376 12 21.5 12C21.2585 12 21.0206 11.9844 20.7873 11.9542C20.9266 11.325 21 10.6711 21 10L20.9999 9.96455C21.1633 9.98791 21.3302 10 21.5 10C23.433 10 25 8.433 25 6.5C25 4.567 23.433 3 21.5 3C20.4531 3 19.5135 3.45966 18.8721 4.18817Z" fill="#9097AB"/>
<path fill-rule="evenodd" clip-rule="evenodd" d="M19 10C19 13.866 15.866 17 12 17C8.13401 17 5 13.866 5 10C5 6.13401 8.13401 3 12 3C15.866 3 19 6.13401 19 10ZM17 10C17 12.7614 14.7614 15 12 15C9.23858 15 7 12.7614 7 10C7 7.23858 9.23858 5 12 5C14.7614 5 17 7.23858 17 10Z" fill="#9097AB"/>
<path d="M23 19H25V17H23V19Z" fill="#9097AB"/>
<path d="M20.0645 14H24C27.3137 14 30 16.6863 30 20V25H28V20C28 17.7909 26.2091 16 24 16H19C18.8985 16 18.7978 16.0038 18.6982 16.0112C19.2394 15.4086 19.7004 14.7326 20.0645 14Z" fill="#9097AB"/>
<path d="M2 26C2 22.134 5.13401 19 9 19H15C18.866 19 22 22.134 22 26V31H20V26C20 23.2386 17.7614 21 15 21H9C6.23858 21 4 23.2386 4 26V31H2V26Z" fill="#9097AB"/>
<path d="M14 25H17V23H14V25Z" fill="#9097AB"/>
</svg>
