<svg width="32" height="32" viewBox="0 0 32 32" fill="none" xmlns="http://www.w3.org/2000/svg">
<path d="M8.20059 24C6.86332 24 5.82498 23.7247 5.08555 23.174C4.36185 22.6077 4 21.884 4 21.0029C4 20.4051 4.14946 19.8702 4.44838 19.3982C4.7473 18.9263 5.17207 18.5251 5.72271 18.1947C6.27335 17.8643 6.92625 17.6047 7.68142 17.4159C8.45231 17.2271 9.28614 17.1327 10.1829 17.1327C10.4346 17.1327 10.7021 17.1406 10.9853 17.1563C11.2842 17.1563 11.591 17.1721 11.9056 17.2035C12.236 17.2193 12.5585 17.2507 12.8732 17.2979L12.944 18.7847C12.6608 18.7532 12.3618 18.7296 12.0472 18.7139C11.7483 18.6824 11.4415 18.6667 11.1268 18.6667C10.8279 18.6509 10.5447 18.6431 10.2773 18.6431C9.63225 18.6431 9.05015 18.6903 8.53097 18.7847C8.0118 18.8633 7.57129 18.9971 7.20944 19.1858C6.84759 19.3589 6.5644 19.587 6.35988 19.8702C6.17109 20.1377 6.0767 20.4602 6.0767 20.8378C6.0767 21.1209 6.13963 21.3727 6.26549 21.5929C6.39135 21.7974 6.56441 21.9626 6.78466 22.0885C7.00492 22.1986 7.25664 22.2852 7.53982 22.3481C7.83874 22.3953 8.16126 22.4189 8.50737 22.4189C9.13668 22.4189 9.69518 22.3324 10.1829 22.1593C10.6863 21.9862 11.1111 21.7188 11.4572 21.3569C11.8191 20.9951 12.0865 20.5546 12.2596 20.0354C12.4484 19.5005 12.5428 18.8869 12.5428 18.1947C12.5428 17.1721 12.4012 16.3854 12.118 15.8348C11.8505 15.2684 11.4572 14.8673 10.9381 14.6313C10.4346 14.3953 9.79744 14.2773 9.02655 14.2773C8.44444 14.2773 7.88594 14.3717 7.35103 14.5605C6.81613 14.7335 6.31268 15.0324 5.84071 15.4572L4.75516 14.2065C5.33727 13.6716 6.0059 13.2783 6.76106 13.0265C7.51622 12.7748 8.31072 12.649 9.14454 12.649C9.91544 12.649 10.6234 12.7355 11.2684 12.9086C11.9135 13.0659 12.472 13.3412 12.944 13.7345C13.4159 14.1278 13.7778 14.6627 14.0295 15.3392C14.297 16 14.4307 16.8338 14.4307 17.8407V23.7404H12.2596V22.2301C12.0236 22.5919 11.7483 22.8909 11.4336 23.1268C11.119 23.3471 10.7807 23.5202 10.4189 23.646C10.057 23.7719 9.68732 23.8584 9.30973 23.9056C8.93215 23.9685 8.56244 24 8.20059 24Z" fill="#9097AB"/>
<path d="M22.8036 24C22.3002 24 21.8204 23.9371 21.3641 23.8112C20.9236 23.6854 20.5224 23.4966 20.1606 23.2448C19.7987 22.9931 19.4841 22.7021 19.2166 22.3717L18.6267 23.7404H17.2343V8H19.5234V8.18879C19.429 8.28319 19.3661 8.38545 19.3346 8.49558C19.3189 8.6057 19.311 8.79449 19.311 9.06195V14.4425C19.4998 14.1593 19.7279 13.9076 19.9954 13.6873C20.2628 13.4671 20.5539 13.2783 20.8685 13.1209C21.1989 12.9479 21.5372 12.822 21.8833 12.7434C22.2294 12.6647 22.5677 12.6254 22.898 12.6254C23.6375 12.6254 24.3061 12.7434 24.9039 12.9794C25.5018 13.2153 26.0131 13.5693 26.4379 14.0413C26.8784 14.4975 27.2166 15.0718 27.4526 15.764C27.6886 16.4562 27.8066 17.2665 27.8066 18.1947C27.8066 19.1701 27.665 20.0275 27.3818 20.767C27.1144 21.4907 26.7447 22.0964 26.2727 22.5841C25.8007 23.056 25.2658 23.41 24.668 23.646C24.0701 23.882 23.4487 24 22.8036 24ZM22.4969 22.2773C22.9059 22.2773 23.2992 22.2144 23.6768 22.0885C24.0701 21.9469 24.4162 21.7266 24.7152 21.4277C25.0298 21.1131 25.2737 20.704 25.4467 20.2006C25.6198 19.6814 25.7063 19.06 25.7063 18.3363C25.7063 17.6598 25.6276 17.0698 25.4703 16.5664C25.3287 16.0629 25.1163 15.646 24.8331 15.3156C24.55 14.9695 24.2117 14.7178 23.8184 14.5605C23.4251 14.3874 23.0003 14.3009 22.5441 14.3009C21.899 14.3009 21.3327 14.4661 20.8449 14.7965C20.373 15.1268 20.0033 15.591 19.7358 16.1888C19.4683 16.7866 19.3346 17.4946 19.3346 18.3127C19.3346 18.9263 19.3897 19.4848 19.4998 19.9882C19.6257 20.4759 19.8145 20.8928 20.0662 21.2389C20.3336 21.5693 20.664 21.8289 21.0573 22.0177C21.4506 22.1908 21.9305 22.2773 22.4969 22.2773Z" fill="#9097AB"/>
</svg>
