<svg width="32" height="32" viewBox="0 0 32 32" fill="none" xmlns="http://www.w3.org/2000/svg">
<path d="M28 25H4C2.89844 25 2 24.1016 2 23V19H3C4.65625 19 6 17.6562 6 16C6 14.3438 4.65625 13 3 13H2V9C2 7.89844 2.89844 7 4 7H28C29.1016 7 30 7.89844 30 9V13H29C27.3438 13 26 14.3438 26 16C26 17.6562 27.3438 19 29 19H30V23C30 24.1016 29.1016 25 28 25ZM4 20.8984V23H28V20.8984C25.7188 20.4375 24 18.4141 24 16C24 13.5859 25.7188 11.5625 28 11.1016V9H4V11.1016C6.28125 11.5625 8 13.5859 8 16C8 18.4141 6.28125 20.4375 4 20.8984Z" fill="#B9BDC7"/>
</svg>
