<?xml version="1.0" encoding="UTF-8"?>
<svg xmlns="http://www.w3.org/2000/svg" xmlns:xlink="http://www.w3.org/1999/xlink" viewBox="0 0 32 32" width="32px" height="32px">
<g id="surface31323870">
<path style=" stroke:none;fill-rule:nonzero;fill:rgb(62.352943%,64.313728%,70.19608%);fill-opacity:1;" d="M 20 2 C 15.59375 2 12 5.59375 12 10 C 12 10.964844 12.308594 11.824219 12.621094 12.667969 L 7.265625 18.027344 C 7.171875 18.019531 7.101562 18 7 18 C 4.25 18 2 20.25 2 23 C 2 25.75 4.25 28 7 28 C 9.75 28 12 25.75 12 23 C 12 22.902344 11.984375 22.839844 11.976562 22.75 L 17.339844 17.382812 C 18.179688 17.691406 19.039062 18 20 18 C 24.40625 18 28 14.40625 28 10 C 28 8.972656 27.789062 8.007812 27.449219 7.125 L 26.894531 5.6875 L 25.808594 6.777344 L 22.585938 10 L 20 10 L 20 7.414062 L 24.3125 3.105469 L 22.875 2.550781 C 21.992188 2.210938 21.027344 2 20 2 Z M 20 4 C 20.171875 4 20.324219 4.078125 20.492188 4.09375 L 18 6.585938 L 18 12 L 23.414062 12 L 25.90625 9.507812 C 25.921875 9.675781 26 9.828125 26 10 C 26 13.324219 23.324219 16 20 16 C 19.085938 16 18.226562 15.777344 17.433594 15.402344 L 16.796875 15.097656 L 9.871094 22.027344 L 9.949219 22.53125 C 9.980469 22.726562 10 22.878906 10 23 C 10 24.671875 8.671875 26 7 26 C 5.328125 26 4 24.671875 4 23 C 4 21.328125 5.328125 20 7 20 C 7.128906 20 7.285156 20.019531 7.484375 20.050781 L 7.992188 20.132812 L 14.90625 13.210938 L 14.601562 12.570312 C 14.222656 11.773438 14 10.914062 14 10 C 14 6.675781 16.675781 4 20 4 Z M 7 22 C 6.449219 22 6 22.449219 6 23 C 6 23.550781 6.449219 24 7 24 C 7.550781 24 8 23.550781 8 23 C 8 22.449219 7.550781 22 7 22 Z M 7 22 "/>
</g>
</svg>
